<svg width="14" height="14" viewBox="0 0 14 14" fill="none" xmlns="http://www.w3.org/2000/svg">
<path opacity="0.4" d="M6.19907 13.6118C6.64566 14.0438 7.35434 14.0438 7.80093 13.6118C8.118 13.3051 8.58236 13.2064 8.99675 13.3576C9.58043 13.5706 10.2278 13.2824 10.4601 12.7061C10.6251 12.297 11.0091 12.0179 11.4492 11.9875C12.069 11.9447 12.5432 11.418 12.521 10.7971C12.5053 10.3563 12.7427 9.94514 13.1323 9.73836C13.6811 9.4471 13.9001 8.77311 13.6273 8.21489C13.4336 7.81857 13.4832 7.34644 13.7551 6.99905C14.138 6.50975 14.0639 5.80496 13.5877 5.40596C13.2495 5.12268 13.1028 4.67119 13.2099 4.24326C13.3607 3.64052 13.0063 3.02679 12.4089 2.856C11.9848 2.73475 11.6672 2.38196 11.5909 1.94749C11.4835 1.33552 10.9102 0.918972 10.295 1.00593C9.85819 1.06767 9.42451 0.874582 9.17813 0.508683C8.8311 -0.00668761 8.13791 -0.154031 7.61127 0.175636C7.23736 0.40969 6.76264 0.40969 6.38873 0.175636C5.86209 -0.15403 5.1689 -0.00668761 4.82187 0.508683C4.57549 0.874583 4.14181 1.06767 3.70503 1.00593C3.08983 0.918972 2.5165 1.33552 2.40909 1.94749C2.33284 2.38196 2.01518 2.73475 1.59106 2.856C0.993674 3.02679 0.639334 3.64052 0.790124 4.24326C0.89718 4.67119 0.750482 5.12268 0.412341 5.40596C-0.0639334 5.80496 -0.138011 6.50975 0.2449 6.99905C0.516755 7.34644 0.566378 7.81857 0.372689 8.21489C0.0998776 8.77311 0.318872 9.4471 0.867694 9.73836C1.25734 9.94514 1.49471 10.3563 1.47896 10.7971C1.45678 11.418 1.93098 11.9447 2.55082 11.9875C2.99089 12.0179 3.37495 12.297 3.53987 12.7061C3.77216 13.2824 4.41957 13.5706 5.00325 13.3576C5.41764 13.2064 5.882 13.3051 6.19907 13.6118Z" fill="#F83758"/>
</svg>
