<svg width="10" height="12" viewBox="0 0 10 12" fill="none" xmlns="http://www.w3.org/2000/svg">
<path d="M6.15702 12L0.833333 7.30317V6.13576H3.54165C4.33117 6.13576 5.03203 5.92151 5.64423 5.493C6.25641 5.06448 6.59401 4.4914 6.65704 3.77375H0V2.71494H6.48719C6.28313 2.23077 5.91508 1.83371 5.38302 1.52374C4.85097 1.21379 4.23717 1.05881 3.54165 1.05881H0V0H9.58329V1.05881H6.58648C6.88242 1.25881 7.14151 1.50247 7.36375 1.78981C7.58597 2.07715 7.73608 2.38552 7.81406 2.71494H9.58329V3.77375H7.91983C7.86215 4.77375 7.4081 5.59389 6.55767 6.23416C5.70724 6.87442 4.7019 7.19455 3.54165 7.19455H2.44867L7.89256 12H6.15702Z" fill="#1C1B1F"/>
</svg>
