<svg width="31" height="20" viewBox="0 0 31 20" fill="none" xmlns="http://www.w3.org/2000/svg">
<path d="M29.8911 12.2222C30.1847 12.2222 30.4663 12.1052 30.6739 11.8968C30.8815 11.6884 30.9981 11.4058 30.9981 11.1111V1.61111C30.9981 1.18382 30.829 0.774025 30.528 0.471883C30.2269 0.169741 29.8186 0 29.3929 0H1.60526C1.17952 0 0.771215 0.169741 0.47017 0.471883C0.169125 0.774025 0 1.18382 0 1.61111V5.08889C0.00660747 5.48653 0.159518 5.86766 0.429303 6.15894C0.699088 6.45022 1.06668 6.63107 1.46134 6.66667C2.34219 6.66667 3.18695 7.01786 3.80981 7.64298C4.43266 8.2681 4.78257 9.11595 4.78257 10C4.78257 10.8841 4.43266 11.7319 3.80981 12.357C3.18695 12.9821 2.34219 13.3333 1.46134 13.3333C1.06668 13.3689 0.699088 13.5498 0.429303 13.8411C0.159518 14.1323 0.00660747 14.5135 0 14.9111V18.3889C0 18.8162 0.169125 19.226 0.47017 19.5281C0.771215 19.8303 1.17952 20 1.60526 20H29.3929C29.8186 20 30.2269 19.8303 30.528 19.5281C30.829 19.226 30.9981 18.8162 30.9981 18.3889V15.5556C30.9981 15.2609 30.8815 14.9783 30.6739 14.7699C30.4663 14.5615 30.1847 14.4444 29.8911 14.4444C29.5975 14.4444 29.3159 14.5615 29.1082 14.7699C28.9006 14.9783 28.784 15.2609 28.784 15.5556V17.7778H13.2849V17.2222C13.2849 16.9275 13.1683 16.6449 12.9607 16.4365C12.753 16.2282 12.4715 16.1111 12.1778 16.1111C11.8842 16.1111 11.6026 16.2282 11.395 16.4365C11.1874 16.6449 11.0708 16.9275 11.0708 17.2222V17.7778H2.21415V15.4444C3.46547 15.1894 4.59046 14.5081 5.39852 13.5158C6.20658 12.5236 6.64801 11.2815 6.64801 10C6.64801 8.71849 6.20658 7.47639 5.39852 6.48416C4.59046 5.49192 3.46547 4.81057 2.21415 4.55556V2.22222H11.0708V2.77778C11.0708 3.07246 11.1874 3.35508 11.395 3.56345C11.6026 3.77183 11.8842 3.88889 12.1778 3.88889C12.4715 3.88889 12.753 3.77183 12.9607 3.56345C13.1683 3.35508 13.2849 3.07246 13.2849 2.77778V2.22222H28.784V11.1111C28.784 11.4058 28.9006 11.6884 29.1082 11.8968C29.3159 12.1052 29.5975 12.2222 29.8911 12.2222Z" fill="#231F20"/>
<path d="M12.1781 10.4221C11.8845 10.4221 11.6029 10.5392 11.3953 10.7476C11.1877 10.9559 11.071 11.2385 11.071 11.5332V14.1555C11.071 14.4501 11.1877 14.7328 11.3953 14.9411C11.6029 15.1495 11.8845 15.2666 12.1781 15.2666C12.4717 15.2666 12.7533 15.1495 12.9609 14.9411C13.1686 14.7328 13.2852 14.4501 13.2852 14.1555V11.5332C13.2852 11.2385 13.1686 10.9559 12.9609 10.7476C12.7533 10.5392 12.4717 10.4221 12.1781 10.4221Z" fill="#231F20"/>
<path d="M13.2852 5.84451C13.2852 5.54983 13.1686 5.26721 12.9609 5.05884C12.7533 4.85046 12.4717 4.7334 12.1781 4.7334C11.8845 4.7334 11.6029 4.85046 11.3953 5.05884C11.1877 5.26721 11.071 5.54983 11.071 5.84451V8.46674C11.071 8.76142 11.1877 9.04404 11.3953 9.25241C11.6029 9.46079 11.8845 9.57785 12.1781 9.57785C12.4717 9.57785 12.7533 9.46079 12.9609 9.25241C13.1686 9.04404 13.2852 8.76142 13.2852 8.46674V5.84451Z" fill="#231F20"/>
<path d="M15.8197 15.2334C15.9226 15.3375 16.045 15.4202 16.1799 15.4766C16.3148 15.533 16.4595 15.562 16.6057 15.562C16.7518 15.562 16.8965 15.533 17.0314 15.4766C17.1663 15.4202 17.2888 15.3375 17.3917 15.2334L26.2483 6.34449C26.3515 6.24089 26.4334 6.1179 26.4893 5.98254C26.5452 5.84719 26.5739 5.70211 26.5739 5.5556C26.5739 5.40909 26.5452 5.26401 26.4893 5.12865C26.4334 4.9933 26.3515 4.87031 26.2483 4.76671C26.1451 4.66311 26.0226 4.58093 25.8877 4.52487C25.7528 4.4688 25.6083 4.43994 25.4623 4.43994C25.3163 4.43994 25.1718 4.4688 25.0369 4.52487C24.902 4.58093 24.7795 4.66311 24.6763 4.76671L15.8197 13.6556C15.7159 13.7589 15.6335 13.8818 15.5773 14.0172C15.5211 14.1526 15.4922 14.2978 15.4922 14.4445C15.4922 14.5912 15.5211 14.7364 15.5773 14.8718C15.6335 15.0072 15.7159 15.1301 15.8197 15.2334Z" fill="#231F20"/>
<path d="M16.6063 6.66656C16.9 6.66656 17.1815 6.5495 17.3892 6.34112C17.5968 6.13275 17.7134 5.85013 17.7134 5.55545C17.7134 5.26076 17.5968 4.97815 17.3892 4.76977C17.1815 4.5614 16.9 4.44434 16.6063 4.44434C16.3127 4.44434 16.0311 4.5614 15.8235 4.76977C15.6159 4.97815 15.4993 5.26076 15.4993 5.55545C15.4993 5.85013 15.6159 6.13275 15.8235 6.34112C16.0311 6.5495 16.3127 6.66656 16.6063 6.66656Z" fill="#231F20"/>
<path d="M25.463 15.5552C25.7566 15.5552 26.0382 15.4382 26.2459 15.2298C26.4535 15.0214 26.5701 14.7388 26.5701 14.4441C26.5701 14.1494 26.4535 13.8668 26.2459 13.6584C26.0382 13.4501 25.7566 13.333 25.463 13.333C25.1694 13.333 24.8878 13.4501 24.6802 13.6584C24.4726 13.8668 24.356 14.1494 24.356 14.4441C24.356 14.7388 24.4726 15.0214 24.6802 15.2298C24.8878 15.4382 25.1694 15.5552 25.463 15.5552Z" fill="#231F20"/>
</svg>
