<svg width="86" height="85" viewBox="0 0 86 85" fill="none" xmlns="http://www.w3.org/2000/svg">
<path d="M37.81 1.97604C40.534 -0.658646 44.8565 -0.658646 47.5805 1.97604C49.5144 3.84659 52.3467 4.44861 54.8742 3.52637C58.4343 2.2274 62.3831 3.98553 63.7999 7.50036C64.8058 9.9958 67.1484 11.6978 69.8325 11.8833C73.6132 12.1446 76.5055 15.3569 76.3702 19.1441C76.2742 21.833 77.7219 24.3406 80.0986 25.6018C83.446 27.3783 84.7818 31.4893 83.1178 34.8941C81.9364 37.3114 82.2391 40.191 83.8972 42.3099C86.2328 45.2943 85.7809 49.5932 82.8759 52.0268C80.8135 53.7546 79.9187 56.5084 80.5717 59.1186C81.4914 62.7949 79.3302 66.5383 75.6865 67.58C73.0996 68.3195 71.1621 70.4714 70.697 73.1214C70.0419 76.854 66.5449 79.3947 62.7925 78.8643C60.1285 78.4877 57.4833 79.6655 55.9805 81.8972C53.8639 85.0407 49.6358 85.9394 46.4236 83.9286C44.143 82.501 41.2475 82.501 38.9669 83.9286C35.7547 85.9394 31.5266 85.0407 29.41 81.8972C27.9072 79.6655 25.262 78.4877 22.5979 78.8643C18.8456 79.3947 15.3486 76.854 14.6935 73.1214C14.2284 70.4714 12.2909 68.3195 9.704 67.58C6.06031 66.5383 3.89906 62.7949 4.81878 59.1186C5.47176 56.5084 4.57699 53.7546 2.51454 52.0268C-0.390446 49.5932 -0.84227 45.2943 1.49325 42.3099C3.1514 40.191 3.45407 37.3114 2.27269 34.8941C0.608703 31.4893 1.94443 27.3783 5.29192 25.6018C7.66853 24.3406 9.1163 21.833 9.02026 19.1441C8.885 15.3569 11.7773 12.1446 15.558 11.8833C18.2421 11.6978 20.5846 9.9958 21.5906 7.50036C23.0074 3.98553 26.9562 2.2274 30.5163 3.52637C33.0438 4.44861 35.8761 3.84659 37.81 1.97604Z" fill="#F83758"/>
</svg>
