<svg width="13" height="16" viewBox="0 0 13 16" fill="none" xmlns="http://www.w3.org/2000/svg">
<path d="M6.41055 0.0534101C2.9044 0.0534101 0.053032 2.7266 0.053032 6.01366V6.41091C0.053032 7.78603 0.515496 9.12695 1.3742 10.2415L5.39578 15.4596C5.63107 15.7652 6.00883 15.947 6.41073 15.947C6.81547 15.947 7.1955 15.7588 7.42397 15.4457L11.4968 9.86421C12.3245 8.72989 12.7683 7.38751 12.7683 6.01321C12.7683 2.72615 9.91692 0.0529673 6.41077 0.0529673L6.41055 0.0534101ZM6.41055 0.848064C9.4586 0.848064 11.9205 3.15608 11.9205 6.01372C11.9205 7.22798 11.5294 8.41393 10.798 9.416L6.72341 14.9975C6.65232 15.0949 6.53638 15.1528 6.4105 15.1528C6.28009 15.1528 6.15904 15.0952 6.08269 14.9961L2.06111 9.77624C1.30656 8.79678 0.900445 7.61924 0.900445 6.41108V6.01383C0.900445 3.15625 3.36229 0.848166 6.41042 0.848166L6.41055 0.848064Z" fill="black" stroke="black" stroke-width="0.1"/>
<path d="M6.4106 2.83462C4.54295 2.83462 3.01998 4.26256 3.01998 6.01337C3.01998 7.76432 4.54309 9.19213 6.4106 9.19213C8.27826 9.19213 9.80123 7.76419 9.80123 6.01337C9.80123 4.26243 8.27811 2.83462 6.4106 2.83462ZM6.4106 3.62928C7.82005 3.62928 8.95361 4.69201 8.95361 6.01337C8.95361 7.33474 7.82005 8.39747 6.4106 8.39747C5.00116 8.39747 3.8676 7.33474 3.8676 6.01337C3.8676 4.69201 5.00116 3.62928 6.4106 3.62928Z" fill="black" stroke="black" stroke-width="0.1"/>
</svg>
