<svg width="300" height="300" viewBox="0 0 300 300" fill="none" xmlns="http://www.w3.org/2000/svg">
<path d="M266.352 192.12H157.902C155.964 192.12 154.386 190.542 154.386 188.604V30.636C154.386 28.698 155.964 27.12 157.902 27.12H266.352C268.29 27.12 269.868 28.698 269.868 30.636V188.604C269.868 190.542 268.29 192.12 266.352 192.12ZM157.902 27.27C156.048 27.27 154.536 28.782 154.536 30.636V188.604C154.536 190.458 156.048 191.97 157.902 191.97H266.352C268.206 191.97 269.718 190.458 269.718 188.604V30.636C269.718 28.782 268.206 27.27 266.352 27.27H157.902Z" fill="#E0E0E0"/>
<path d="M141.294 192.12H32.85C30.912 192.12 29.334 190.542 29.334 188.604V30.636C29.334 28.698 30.912 27.12 32.85 27.12H141.294C143.232 27.12 144.81 28.698 144.81 30.636V188.604C144.81 190.542 143.232 192.12 141.294 192.12ZM32.85 27.27C30.996 27.27 29.484 28.782 29.484 30.636V188.604C29.484 190.458 30.996 191.97 32.85 191.97H141.294C143.148 191.97 144.66 190.458 144.66 188.604V30.636C144.66 28.782 143.148 27.27 141.294 27.27H32.85Z" fill="#E0E0E0"/>
<path d="M300 228.762H0V228.912H300V228.762Z" fill="#E0E0E0"/>
<path d="M40.638 237.318H31.002V237.468H40.638V237.318Z" fill="#E0E0E0"/>
<path d="M134.328 235.692H102.21V235.842H134.328V235.692Z" fill="#E0E0E0"/>
<path d="M62.988 242.892H41.238V243.042H62.988V242.892Z" fill="#E0E0E0"/>
<path d="M252.924 235.614H227.01V235.764H252.924V235.614Z" fill="#E0E0E0"/>
<path d="M262.068 235.614H258.27V235.764H262.068V235.614Z" fill="#E0E0E0"/>
<path d="M222.06 239.352H189.726V239.502H222.06V239.352Z" fill="#E0E0E0"/>
<path d="M42.048 209.304C42.042 209.094 41.34 188.358 37.968 185.082C34.686 181.896 30.924 184.962 30.762 185.094L30.426 184.686C30.468 184.65 34.716 181.182 38.334 184.698C41.856 188.124 42.546 208.422 42.576 209.28L42.048 209.298V209.304Z" fill="#E0E0E0"/>
<path d="M42.336 213.384C42.312 213.138 40.032 188.49 49.032 178.164L49.428 178.512C40.578 188.67 42.834 213.09 42.858 213.336L42.33 213.39L42.336 213.384Z" fill="#E0E0E0"/>
<path d="M42.006 210.774L41.478 210.738C41.496 210.456 43.242 182.724 36.636 176.652L36.996 176.262C43.782 182.502 42.084 209.622 42.006 210.774Z" fill="#E0E0E0"/>
<path d="M42.864 210.762H42.336C42.342 209.994 42.552 192.024 47.658 189.096C48.792 188.442 49.902 188.334 50.958 188.772C54.042 190.05 55.572 195.54 55.638 195.774L55.128 195.912C55.116 195.858 53.604 190.434 50.754 189.258C49.854 188.886 48.9 188.988 47.916 189.552C43.074 192.33 42.858 210.576 42.858 210.762H42.864Z" fill="#E0E0E0"/>
<path d="M40.878 210.774L40.35 210.744C40.356 210.6 41.118 196.542 37.326 191.586C36.408 190.386 35.406 189.816 34.356 189.888C31.872 190.062 29.784 193.698 29.766 193.734L29.304 193.476C29.394 193.314 31.548 189.552 34.32 189.36C35.562 189.27 36.714 189.912 37.746 191.262C41.658 196.368 40.914 210.18 40.878 210.768V210.774Z" fill="#E0E0E0"/>
<path d="M41.712 212.682C41.61 211.32 39.234 179.214 43.416 173.556L43.842 173.868C39.774 179.37 42.216 212.304 42.24 212.64L41.712 212.682Z" fill="#E0E0E0"/>
<path d="M52.098 192.024C52.098 192.024 49.59 192.948 50.334 195.132C51.078 197.316 59.016 200.91 59.016 200.91C59.016 200.91 62.34 197.862 59.286 192.912C56.232 187.956 52.164 190.464 52.098 192.024Z" fill="#EBEBEB"/>
<path d="M41.19 187.866C41.19 187.866 43.86 187.752 44.016 190.056C44.166 192.36 38.226 198.732 38.226 198.732C38.226 198.732 33.984 197.202 34.896 191.454C35.808 185.706 40.524 186.45 41.19 187.866Z" fill="#EBEBEB"/>
<path d="M38.928 176.844C38.928 176.844 40.71 176.652 40.566 175.566C40.422 174.48 33.642 171.69 29.64 176.202C29.64 176.202 32.202 180.6 35.904 180.66C39.606 180.72 38.928 176.838 38.928 176.838V176.844Z" fill="#EBEBEB"/>
<path d="M42.252 174.21C42.252 174.21 40.638 174.99 40.188 173.994C39.738 172.998 44.016 167.04 49.8 168.756C49.8 168.756 49.956 173.844 46.842 175.854C43.728 177.864 42.258 174.21 42.258 174.21H42.252Z" fill="#EBEBEB"/>
<path d="M33.816 191.148C33.816 191.148 35.046 190.158 33.72 189.672C32.394 189.186 25.884 189.324 25.812 195.774C25.812 195.774 33.396 197.034 34.332 194.58C35.268 192.126 33.816 191.154 33.816 191.154V191.148Z" fill="#EBEBEB"/>
<path d="M49.278 176.682C49.278 176.682 48.048 175.692 49.374 175.206C50.7 174.72 57.21 174.858 57.276 181.308C57.276 181.308 49.692 182.568 48.756 180.114C47.82 177.66 49.272 176.688 49.272 176.688L49.278 176.682Z" fill="#EBEBEB"/>
<path d="M45.27 181.878C45.27 181.878 45.162 180.672 46.134 181.146C47.106 181.62 50.502 185.28 46.986 188.754C46.986 188.754 42.252 185.244 43.104 183.42C43.956 181.596 45.27 181.878 45.27 181.878Z" fill="#EBEBEB"/>
<path d="M32.718 183.6C32.718 183.6 33.45 182.634 32.376 182.52C31.302 182.4 26.478 183.69 27.6 188.502C27.6 188.502 33.474 188.058 33.726 186.06C33.978 184.062 32.718 183.6 32.718 183.6Z" fill="#EBEBEB"/>
<path d="M53.082 228.636H32.916L30.744 206.556H55.254L53.082 228.636Z" fill="#F0F0F0"/>
<path d="M55.818 204.12H29.154V208.992H55.818V204.12Z" fill="#E6E6E6"/>
<path d="M276.096 105.498H218.364V106.47H276.096V105.498Z" fill="#E0E0E0"/>
<path d="M254.97 124.92C253.596 138.576 254.622 149.046 255.138 161.55C255.684 174.81 253.482 187.854 253.848 201.876C254.676 201.354 255.42 201.096 256.17 201.876C257.262 202.638 258.21 202.884 259.056 201.876C260.166 201.876 260.922 201.348 261.54 201.876C262.368 190.986 263.478 179.568 262.368 172.128C262.212 170.61 266.778 171.018 266.874 168.882C267.354 159.054 265.308 141.024 263.61 125.028C263.61 124.914 263.598 124.8 263.568 124.686L261.66 116.562C261.564 116.136 261.366 115.74 261.096 115.404L260.58 114.756L259.752 110.61V105.498H259.272V110.58L257.79 112.944L253.176 117.048L254.976 124.926L254.97 124.92Z" fill="#E0E0E0"/>
<path d="M224.406 116.592L223.032 123.966C223.032 124.032 223.032 124.092 223.032 124.158L220.722 201.87C221.55 200.214 222.288 200.508 223.044 201.87C224.07 203.214 225.03 203.268 225.93 201.87C227.082 200.646 227.814 201 228.414 201.87L229.242 172.122L230.484 125.022C230.502 124.908 230.502 124.794 230.484 124.68L228.576 116.556C228.48 116.13 228.282 115.734 228.012 115.398L227.496 114.75L226.668 110.604V105.492H226.188V110.574L225.684 114.852L224.952 115.68C224.682 115.926 224.496 116.238 224.406 116.592Z" fill="#E0E0E0"/>
<path d="M234.138 116.592L232.764 123.966C232.764 124.032 232.764 124.092 232.764 124.158C230.706 148.296 230.106 174.426 230.454 201.87C231.282 200.214 232.014 200.508 232.764 201.87C233.79 203.214 234.75 203.268 235.656 201.87C236.802 200.646 237.528 201 238.14 201.87C238.968 190.98 240.09 179.562 238.968 172.122C238.14 163.644 242.28 144.504 240.21 125.022C240.222 124.908 240.222 124.794 240.21 124.68L238.296 116.556C238.2 116.13 238.002 115.734 237.732 115.398L237.216 114.75L236.388 110.604V105.492H235.908V110.574L235.32 114.852L234.588 115.68C234.354 115.938 234.198 116.25 234.132 116.592H234.138Z" fill="#E0E0E0"/>
<path d="M265.512 116.592L264.138 123.966C264.138 124.032 264.138 124.092 264.138 124.158C262.08 148.296 261.48 174.426 261.828 201.87C262.656 200.214 263.388 200.508 264.138 201.87C265.164 203.214 266.124 203.268 267.03 201.87C268.176 200.646 268.902 201 269.514 201.87C270.342 190.98 271.464 179.562 270.342 172.122C269.514 163.644 273.654 144.504 271.584 125.022C271.596 124.908 271.596 124.794 271.584 124.68L269.67 116.556C269.568 116.136 269.382 115.74 269.112 115.398L268.596 114.75L267.768 110.604V105.492H267.288V110.574L266.784 114.852L266.052 115.68C265.794 115.932 265.602 116.244 265.506 116.592H265.512Z" fill="#E0E0E0"/>
<path d="M245.844 116.592L244.434 123.966V124.158C240.798 136.5 242.91 149.094 243.426 161.55C243.966 174.81 241.77 187.854 242.136 201.876C242.964 201.354 243.702 201.096 244.446 201.876C245.538 202.638 246.486 202.884 247.332 201.876C248.442 201.876 249.198 201.348 249.816 201.876C250.644 190.986 251.754 179.568 250.644 172.128C250.488 170.61 255.054 171.018 255.15 168.882C255.63 159.054 253.584 141.024 251.886 125.028C251.886 124.914 251.874 124.8 251.844 124.686L249.936 116.562C249.84 116.136 249.642 115.74 249.372 115.404L248.856 114.756L248.028 110.61V105.498H247.548V110.58L247.044 114.858L246.312 115.686C246.072 115.938 245.91 116.256 245.838 116.598L245.844 116.592Z" fill="#E0E0E0"/>
<path d="M149.124 55.866H105.114V111.918H149.124V55.866Z" fill="#E6E6E6"/>
<path d="M146.148 59.652H108.084V108.132H146.148V59.652Z" fill="#FAFAFA"/>
<path d="M126.798 79.206C129.068 79.206 130.908 77.3659 130.908 75.096C130.908 72.8261 129.068 70.986 126.798 70.986C124.528 70.986 122.688 72.8261 122.688 75.096C122.688 77.3659 124.528 79.206 126.798 79.206Z" fill="#E0E0E0"/>
<path d="M127.122 80.91H136.068L131.592 88.656L127.122 96.408L122.646 88.656L118.17 80.91H127.122Z" fill="#E0E0E0"/>
<path d="M203.868 38.646H160.746V93.564H203.868V38.646Z" fill="#E6E6E6"/>
<path d="M200.958 42.354H163.656V89.856H200.958V42.354Z" fill="#FAFAFA"/>
<path d="M186.018 57.486C186.018 59.712 184.218 61.512 181.992 61.512C179.766 61.512 177.966 59.712 177.966 57.486C177.966 55.26 179.766 53.46 181.992 53.46C184.218 53.46 186.018 55.26 186.018 57.486Z" fill="#E0E0E0"/>
<path d="M182.304 78.372H173.538L177.924 70.776L182.304 63.186L186.69 70.776L191.076 78.372H182.304Z" fill="#E0E0E0"/>
<path d="M79.086 99.714C80.0834 99.714 80.892 98.9054 80.892 97.908C80.892 96.9106 80.0834 96.102 79.086 96.102C78.0886 96.102 77.28 96.9106 77.28 97.908C77.28 98.9054 78.0886 99.714 79.086 99.714Z" fill="#E0E0E0"/>
<path d="M36.276 99.714C37.2734 99.714 38.082 98.9054 38.082 97.908C38.082 96.9106 37.2734 96.102 36.276 96.102C35.2786 96.102 34.47 96.9106 34.47 97.908C34.47 98.9054 35.2786 99.714 36.276 99.714Z" fill="#E0E0E0"/>
<path d="M281.25 269.034C281.25 271.068 222.486 272.712 150 272.712C77.514 272.712 18.75 271.062 18.75 269.034C18.75 267.006 77.514 265.356 150 265.356C222.486 265.356 281.25 267.006 281.25 269.034Z" fill="#F5F5F5"/>
<path d="M282.846 82.224H211.62V88.74H282.846V82.224Z" fill="#263238"/>
<path d="M222.834 71.286L222.39 71.208C222.696 69.492 223.014 67.722 223.692 66.066C224.22 64.764 225.222 62.976 226.968 61.878C229.554 60.252 233.238 60.642 235.728 62.802C237.954 64.734 239.172 67.968 238.908 71.244L238.458 71.208C238.71 68.07 237.552 64.974 235.434 63.138C233.13 61.134 229.59 60.756 227.208 62.256C225.564 63.294 224.616 64.992 224.112 66.234C223.458 67.848 223.14 69.594 222.84 71.286H222.834Z" fill="#263238"/>
<path d="M240.966 74.73C240.966 78.87 236.472 82.224 230.934 82.224C225.396 82.224 220.902 78.87 220.902 74.73C220.902 72.9 221.388 70.848 222.852 69.546C224.694 67.908 227.85 67.236 230.934 67.236C233.61 67.236 236.736 67.77 238.536 69.048C240.456 70.416 240.966 72.588 240.966 74.73Z" fill="#F83758"/>
<path opacity="0.3" d="M240.966 74.73C240.966 78.87 236.472 82.224 230.934 82.224C225.396 82.224 220.902 78.87 220.902 74.73C220.902 72.9 221.388 70.848 222.852 69.546C224.694 67.908 227.85 67.236 230.934 67.236C233.61 67.236 236.736 67.77 238.536 69.048C240.456 70.416 240.966 72.588 240.966 74.73Z" fill="black"/>
<path opacity="0.3" d="M221.574 72.036C221.574 72.036 224.502 75.558 230.94 75.618C237.372 75.678 240.306 72.036 240.306 72.036C240.306 72.036 237.852 76.902 230.412 76.902C224.97 76.902 221.574 72.036 221.574 72.036Z" fill="black"/>
<path d="M230.61 74.472C231.057 74.472 231.42 74.1094 231.42 73.662C231.42 73.2147 231.057 72.852 230.61 72.852C230.163 72.852 229.8 73.2147 229.8 73.662C229.8 74.1094 230.163 74.472 230.61 74.472Z" fill="#263238"/>
<path d="M275.43 67.89H253.374V81.942H275.43V67.89Z" fill="#F83758"/>
<path d="M276.822 66.3H251.982V72.18H276.822V66.3Z" fill="#F83758"/>
<path opacity="0.3" d="M275.43 72.234H253.374V73.686H275.43V72.234Z" fill="black"/>
<path opacity="0.3" d="M267.666 68.16H261.144C260.614 68.16 260.184 68.5898 260.184 69.12V69.33C260.184 69.8602 260.614 70.29 261.144 70.29H267.666C268.196 70.29 268.626 69.8602 268.626 69.33V69.12C268.626 68.5898 268.196 68.16 267.666 68.16Z" fill="black"/>
<path d="M278.376 65.028C277.494 64.5 276.492 64.104 275.424 63.846C275.088 63.888 271.716 64.284 270.174 62.532C268.554 60.684 266.262 54.33 262.554 54.702C262.578 54.66 262.608 54.624 262.632 54.582C262.608 54.612 262.578 54.636 262.554 54.66C262.44 54.792 262.356 54.936 262.29 55.086C262.098 55.854 261.966 56.628 261.9 57.402C261.726 60.048 261.846 63.588 262.08 66.228H262.866L262.968 60.354C262.968 58.662 264.804 60.63 265.326 62.436C265.848 64.242 266.934 66.222 271.83 66.228C277.464 66.252 279.834 66.066 278.376 65.028Z" fill="#263238"/>
<path opacity="0.1" d="M278.376 65.028C277.494 64.5 276.492 64.104 275.424 63.846C275.088 63.888 271.716 64.284 270.174 62.532C268.554 60.684 266.262 54.33 262.554 54.702C262.578 54.66 262.608 54.624 262.632 54.582C262.608 54.612 262.578 54.636 262.554 54.66C262.44 54.792 262.356 54.936 262.29 55.086C262.098 55.854 261.966 56.628 261.9 57.402C261.726 60.048 261.846 63.588 262.08 66.228H262.866L262.968 60.354C262.968 58.662 264.804 60.63 265.326 62.436C265.848 64.242 266.934 66.222 271.83 66.228C277.464 66.252 279.834 66.066 278.376 65.028Z" fill="black"/>
<path d="M269.082 65.028C268.2 64.5 267.198 64.104 266.13 63.846C265.794 63.888 262.422 64.284 260.88 62.532C259.26 60.684 256.968 54.33 253.26 54.702C253.284 54.66 253.314 54.624 253.338 54.582C253.314 54.612 253.284 54.636 253.26 54.66C253.146 54.792 253.062 54.936 252.996 55.086C252.804 55.854 252.672 56.628 252.606 57.402C252.432 60.048 252.552 63.588 252.786 66.228H253.572L253.674 60.354C253.674 58.662 255.51 60.63 256.032 62.436C256.554 64.242 257.64 66.222 262.536 66.228C268.17 66.252 270.54 66.066 269.082 65.028Z" fill="#263238"/>
<path d="M66.516 65.16L66.066 65.136C66.084 64.812 66.096 64.47 66.114 64.116C66.21 61.8 66.336 58.914 67.578 56.976C68.868 54.966 71.052 53.772 74.076 53.418C76.806 53.1 79.566 54.258 81.114 56.364C82.806 58.662 82.932 61.704 82.92 64.626H82.47C82.482 61.782 82.362 58.818 80.754 56.634C79.296 54.654 76.698 53.568 74.13 53.868C71.25 54.204 69.174 55.332 67.956 57.222C66.774 59.058 66.66 61.878 66.564 64.14C66.552 64.494 66.534 64.842 66.516 65.166V65.16Z" fill="#263238"/>
<path d="M86.106 78.51H62.88L65.274 63.414H84.222L86.106 78.51Z" fill="#F83758"/>
<path opacity="0.3" d="M65.274 63.414C65.274 63.414 68.13 70.932 74.496 70.962C80.862 70.986 84.222 63.414 84.222 63.414C84.222 63.414 81.102 72.42 74.496 72.288C67.89 72.15 65.274 63.414 65.274 63.414Z" fill="black"/>
<path d="M76.47 68.226H72.69V68.958H76.47V68.226Z" fill="#263238"/>
<path d="M52.902 75.312H29.094C28.4909 75.312 28.002 75.8009 28.002 76.404V77.304C28.002 77.9071 28.4909 78.396 29.094 78.396H52.902C53.5051 78.396 53.994 77.9071 53.994 77.304V76.404C53.994 75.8009 53.5051 75.312 52.902 75.312Z" fill="#F83758"/>
<path d="M27.192 73.326V74.22C27.204 74.838 27.714 75.324 28.332 75.312H53.016C53.634 75.324 54.144 74.832 54.156 74.22V73.326C54.144 72.708 53.634 72.216 53.016 72.228H28.314C27.702 72.228 27.204 72.72 27.192 73.326Z" fill="#F83758"/>
<path opacity="0.3" d="M27.192 73.326V74.22C27.204 74.838 27.714 75.324 28.332 75.312H53.016C53.634 75.324 54.144 74.832 54.156 74.22V73.326C54.144 72.708 53.634 72.216 53.016 72.228H28.314C27.702 72.228 27.204 72.72 27.192 73.326Z" fill="black"/>
<path d="M27.27 70.236V71.13C27.288 71.754 27.804 72.24 28.428 72.222H53.562C54.186 72.24 54.702 71.748 54.72 71.13V70.236C54.708 69.612 54.192 69.12 53.568 69.132H28.428C27.804 69.114 27.288 69.606 27.27 70.224V70.236Z" fill="#F83758"/>
<path d="M27.918 67.146V68.04C27.918 68.646 28.41 69.138 29.022 69.138H52.896C53.502 69.138 54 68.646 54 68.04V67.146C54 66.54 53.502 66.054 52.896 66.054H28.986C28.392 66.072 27.924 66.558 27.918 67.146Z" fill="#F83758"/>
<path opacity="0.3" d="M27.918 67.146V68.04C27.918 68.646 28.41 69.138 29.022 69.138H52.896C53.502 69.138 54 68.646 54 68.04V67.146C54 66.54 53.502 66.054 52.896 66.054H28.986C28.392 66.072 27.924 66.558 27.918 67.146Z" fill="black"/>
<path d="M29.304 64.062V64.956C29.28 65.526 29.718 66.018 30.288 66.048H51.618C52.194 66.018 52.632 65.526 52.602 64.956V64.062C52.632 63.486 52.194 62.994 51.618 62.958H30.318C29.742 62.976 29.286 63.456 29.304 64.038V64.062Z" fill="#F83758"/>
<path d="M93.492 78.282H22.266V84.798H93.492V78.282Z" fill="#263238"/>
<path d="M75.678 255.336H52.542V267.966H75.678V255.336Z" fill="#263238"/>
<path opacity="0.7" d="M75.678 255.336H52.542V267.966H75.678V255.336Z" fill="white"/>
<path d="M77.142 253.914H51.084V259.2H77.142V253.914Z" fill="#263238"/>
<path opacity="0.7" d="M77.142 253.914H51.084V259.2H77.142V253.914Z" fill="white"/>
<path opacity="0.3" d="M75.678 259.242H52.542V260.544H75.678V259.242Z" fill="black"/>
<path opacity="0.3" d="M66.372 257.496H62.388C61.86 257.496 61.428 257.07 61.428 256.536C61.428 256.008 61.854 255.576 62.388 255.576H66.372C66.9 255.576 67.332 256.002 67.332 256.536C67.332 257.064 66.906 257.496 66.372 257.496Z" fill="black"/>
<path d="M53.154 253.914H22.176V267.966H53.154V253.914Z" fill="#F83758"/>
<path d="M55.116 252.33H20.22V258.21H55.116V252.33Z" fill="#F83758"/>
<path opacity="0.3" d="M53.154 258.258H22.176V259.71H53.154V258.258Z" fill="black"/>
<path opacity="0.3" d="M41.022 254.19H35.04C34.5098 254.19 34.08 254.62 34.08 255.15V255.36C34.08 255.89 34.5098 256.32 35.04 256.32H41.022C41.5522 256.32 41.982 255.89 41.982 255.36V255.15C41.982 254.62 41.5522 254.19 41.022 254.19Z" fill="black"/>
<path d="M53.154 237.294H22.176V252.33H53.154V237.294Z" fill="#263238"/>
<path d="M55.116 235.596H20.22V241.89H55.116V235.596Z" fill="#263238"/>
<path opacity="0.3" d="M53.154 241.944H22.176V243.498H53.154V241.944Z" fill="black"/>
<path opacity="0.3" d="M41.022 237.588H35.04C34.5098 237.588 34.08 238.018 34.08 238.548V238.908C34.08 239.438 34.5098 239.868 35.04 239.868H41.022C41.5522 239.868 41.982 239.438 41.982 238.908V238.548C41.982 238.018 41.5522 237.588 41.022 237.588Z" fill="black"/>
<path d="M254.124 169.728H250.488V261.318H254.124V169.728Z" fill="#263238"/>
<path opacity="0.3" d="M254.124 169.728H250.488V261.318H254.124V169.728Z" fill="white"/>
<path d="M237.024 267.966L250.488 258.984L252.3 260.424L240.498 267.966H237.024Z" fill="#263238"/>
<path opacity="0.3" d="M237.024 267.966L250.488 258.984L252.3 260.424L240.498 267.966H237.024Z" fill="white"/>
<path d="M267.582 267.966L254.118 258.984L252.3 260.424L264.108 267.966H267.582Z" fill="#263238"/>
<path opacity="0.3" d="M267.582 267.966L254.118 258.984L252.3 260.424L264.108 267.966H267.582Z" fill="white"/>
<path d="M233.544 135.054C233.184 132.822 234.57 130.692 236.76 130.134C240.582 129.168 246.858 127.452 247.62 126.438C248.724 124.968 249.462 117.972 249.462 117.972L253.878 118.71V180.726H236.394C236.394 180.726 236.58 176.676 238.05 171.522C239.52 166.368 242.1 161.034 242.1 161.034C242.1 161.034 234.918 143.484 233.55 135.054H233.544Z" fill="#F83758"/>
<path d="M271.74 135.054C272.1 132.822 270.714 130.692 268.524 130.134C264.702 129.168 258.426 127.452 257.664 126.438C256.56 124.968 255.822 117.972 255.822 117.972L251.406 118.71V180.726H268.89C268.89 180.726 268.704 176.676 267.234 171.522C265.764 166.368 263.184 161.034 263.184 161.034C263.184 161.034 270.366 143.484 271.734 135.054H271.74Z" fill="#F83758"/>
<path opacity="0.2" d="M252.954 122.334C255.525 122.334 257.61 118.264 257.61 113.244C257.61 108.224 255.525 104.154 252.954 104.154C250.383 104.154 248.298 108.224 248.298 113.244C248.298 118.264 250.383 122.334 252.954 122.334Z" fill="black"/>
<path d="M252.954 120.552C257.732 120.552 261.606 115.773 261.606 109.878C261.606 103.983 257.732 99.204 252.954 99.204C248.176 99.204 244.302 103.983 244.302 109.878C244.302 115.773 248.176 120.552 252.954 120.552Z" fill="#F83758"/>
<path d="M236.172 144.93C236.172 144.93 242.958 136.35 252.954 144.93C252.954 144.93 263.04 135.582 268.794 145.908L264.012 161.34C264.012 161.34 272.292 181.638 271.8 197.49L273.828 243.558H266.91L264.498 206.616L262.884 243.558H234.948C234.948 243.558 234.42 185.484 237.522 173.544C239.934 164.262 241.398 161.34 241.398 161.34L236.172 144.93Z" fill="#263238"/>
<path d="M53.358 112.59H22.788C22.374 112.59 22.014 112.32 21.9 111.924C21.786 111.522 21.948 111.108 22.302 110.886L37.422 101.484L53.808 110.934C54.162 111.138 54.33 111.54 54.222 111.93C54.114 112.326 53.772 112.59 53.364 112.59H53.358ZM22.614 111.396C22.422 111.516 22.458 111.702 22.476 111.756C22.494 111.81 22.56 111.99 22.788 111.99H53.358C53.562 111.99 53.622 111.828 53.634 111.774C53.646 111.72 53.676 111.552 53.502 111.45L37.428 102.18L22.614 111.39V111.396Z" fill="#263238"/>
<path d="M37.536 102.138C37.506 102.138 37.476 102.138 37.446 102.126C37.29 102.072 37.2 101.904 37.254 101.748C37.602 100.686 37.77 99.582 37.758 98.46C37.758 97.98 37.704 97.374 37.392 96.948C37.182 96.654 36.828 96.462 36.42 96.42C35.994 96.372 35.58 96.492 35.292 96.744C34.704 97.26 34.632 98.298 35.142 98.922C35.244 99.048 35.226 99.24 35.1 99.342C34.974 99.45 34.782 99.426 34.68 99.3C33.966 98.43 34.068 97.02 34.896 96.294C35.31 95.928 35.892 95.76 36.486 95.82C37.062 95.886 37.566 96.168 37.878 96.594C38.286 97.158 38.352 97.884 38.358 98.454C38.37 99.636 38.196 100.806 37.824 101.934C37.782 102.06 37.662 102.144 37.536 102.144V102.138Z" fill="#263238"/>
<path d="M29.274 105.936L37.734 117.672L44.43 105.402L53.892 110.856L57.732 117.546L52.242 120.39L50.478 131.268L52.242 147.108C43.23 149.592 34.332 149.658 25.56 147.108L27.018 131.454L25.56 122.19L18.384 119.514L20.856 111.942L29.268 105.93L29.274 105.936Z" fill="#F83758"/>
<path opacity="0.3" d="M25.56 122.196L23.772 115.992V121.53L25.56 122.196Z" fill="black"/>
<path opacity="0.3" d="M52.242 120.39L52.944 114.27L53.91 119.526L52.242 120.39Z" fill="black"/>
<path opacity="0.3" d="M33.18 138.888C33.18 138.888 43.104 133.584 45.582 128.304C45.582 128.304 43.23 138.948 33.18 138.888Z" fill="black"/>
<path d="M96.168 112.59H65.598C65.184 112.59 64.824 112.32 64.71 111.924C64.596 111.522 64.758 111.108 65.112 110.886L80.232 101.484L96.618 110.934C96.972 111.138 97.14 111.54 97.032 111.936C96.924 112.332 96.582 112.596 96.174 112.596L96.168 112.59ZM65.424 111.396C65.232 111.516 65.268 111.702 65.286 111.756C65.304 111.81 65.37 111.99 65.598 111.99H96.168C96.372 111.99 96.432 111.828 96.444 111.774C96.456 111.72 96.486 111.552 96.312 111.45L80.238 102.18L65.424 111.39V111.396Z" fill="#263238"/>
<path d="M80.346 102.138C80.316 102.138 80.286 102.138 80.256 102.126C80.1 102.072 80.01 101.904 80.064 101.748C80.412 100.686 80.58 99.576 80.568 98.46C80.568 97.98 80.514 97.374 80.202 96.948C79.992 96.654 79.638 96.462 79.23 96.42C78.804 96.372 78.39 96.492 78.102 96.744C77.514 97.26 77.442 98.298 77.952 98.922C78.054 99.048 78.036 99.24 77.91 99.342C77.784 99.45 77.592 99.426 77.49 99.3C76.776 98.43 76.878 97.02 77.706 96.294C78.12 95.928 78.702 95.76 79.296 95.82C79.872 95.886 80.376 96.168 80.688 96.594C81.096 97.158 81.162 97.884 81.168 98.454C81.18 99.636 81.006 100.806 80.634 101.934C80.592 102.06 80.478 102.144 80.346 102.144V102.138Z" fill="#263238"/>
<path d="M72.168 106.398L70.356 107.472L71.676 118.308L72.492 118.086L72.168 106.398Z" fill="#263238"/>
<path d="M88.896 106.44L90.282 107.232L87.582 117.888L86.94 117.654L88.764 106.656L88.896 106.44Z" fill="#263238"/>
<path d="M53.91 192.156C57.678 197.328 61.482 199.086 65.052 199.428C69.084 199.296 72.21 196.44 75.372 192.156C76.146 190.848 77.406 190.53 77.73 192.156L78.426 194.124C78.564 194.496 78.978 194.688 79.356 194.544C79.572 194.466 79.734 194.286 79.8 194.064L80.292 192.174C80.442 191.412 81.18 190.92 81.936 191.07C82.494 191.178 82.932 191.616 83.04 192.174L83.628 195.27C84.546 197.766 87.126 201.402 92.802 201.222C96.732 201.27 99.618 196.584 102.534 192.18L88.584 136.17L71.448 135.612L53.91 192.162V192.156Z" fill="#F83758"/>
<path opacity="0.2" d="M82.458 191.334C82.092 191.028 81.6 190.938 81.15 191.082V159.228L82.458 191.334Z" fill="black"/>
<path d="M65.88 119.316L70.896 116.916C72.126 116.322 73.572 116.394 74.736 117.102L80.052 120.3L84.432 117.57C86.016 116.586 88.002 116.532 89.64 117.42L94.59 120.108L89.31 138.66L86.37 139.896C85.608 140.214 84.744 140.154 84.03 139.734L80.826 137.58C80.142 137.124 79.248 137.142 78.582 137.622L76.476 139.146C75.636 139.752 74.568 139.95 73.566 139.698L70.38 138.876L65.886 119.322L65.88 119.316Z" fill="#F83758"/>
<path d="M70.374 138.87L69.504 135.09C76.56 136.35 83.46 136.578 90.168 135.606L89.472 139.716C89.472 139.716 80.022 141.84 70.872 138.888" fill="#263238"/>
<g opacity="0.2">
<path d="M71.646 129.84C72.918 130.56 74.43 130.842 75.882 130.638C77.328 130.434 78.702 129.744 79.734 128.7C79.542 130.32 78.012 131.574 76.392 131.772C74.772 131.97 73.146 131.274 71.892 130.224" fill="black"/>
</g>
<path d="M168.936 121.53C167.04 121.362 163.218 124.686 162.198 125.724C161.178 126.762 153.108 130.266 153.108 130.266L144.144 119.712L140.586 121.638C140.586 121.638 148.47 137.64 149.28 138.546C150.09 139.452 151.416 139.566 153.834 139.224C156.252 138.882 169.872 129.714 169.536 129.6C169.194 129.486 168.948 121.53 168.948 121.53H168.936Z" fill="#B97964"/>
<path d="M144.198 120.258C144.198 120.258 145.266 118.914 145.086 117.51C144.906 116.1 145.14 114.93 144.936 113.892C144.732 112.854 144.024 114.096 143.784 114.828C143.544 115.566 143.262 116.394 142.734 116.124C142.212 115.854 139.47 111.588 138.702 111.294C137.934 111 138.162 111.828 138.162 111.828C138.162 111.828 137.466 110.808 136.992 110.976C136.866 111.018 136.65 111.318 136.89 111.834C137.436 112.986 138.714 115.356 138.714 115.356C138.642 115.218 136.86 112.41 136.542 112.026C136.122 111.522 135.666 111.498 135.384 111.75C134.982 112.11 137.07 115.662 137.052 115.878C137.052 115.878 135.918 113.79 135.216 113.79C134.514 113.79 135.162 115.14 135.954 116.226C136.68 117.222 137.844 119.364 138.684 120.3C139.716 121.458 140.67 122.004 142.056 121.572C143.442 121.14 144.198 120.258 144.198 120.258Z" fill="#B97964"/>
<path opacity="0.3" d="M138.18 117.216C138.132 117.216 138.09 117.192 138.06 117.156C138.012 117.09 138.024 116.994 138.09 116.946C139.014 116.274 140.004 115.686 141.042 115.212C141.114 115.176 141.204 115.212 141.24 115.284C141.276 115.362 141.24 115.446 141.168 115.482C140.148 115.95 139.17 116.526 138.264 117.186C138.24 117.204 138.204 117.216 138.174 117.216H138.18Z" fill="black"/>
<path opacity="0.3" d="M141.39 119.472C141.39 119.472 141.372 119.472 141.366 119.472C141.282 119.46 141.228 119.382 141.24 119.298C141.396 118.338 141.984 117.45 142.806 116.922C142.878 116.88 142.968 116.898 143.016 116.97C143.058 117.042 143.04 117.132 142.968 117.18C142.218 117.66 141.684 118.47 141.54 119.352C141.528 119.424 141.462 119.478 141.39 119.478V119.472Z" fill="black"/>
<path d="M171.84 98.304L177.18 95.244C174.222 92.628 170.736 93.252 168.474 95.322C167.154 96.534 167.436 97.644 166.512 98.316C165.444 99.09 164.292 99.51 163.434 100.584C162.168 102.174 162.942 104.892 162.036 106.794C161.484 107.952 160.332 108.762 160.224 110.082C160.122 111.342 161.058 112.488 160.938 113.748C160.872 114.432 160.494 115.14 160.746 115.764C160.956 116.292 161.514 116.472 162 116.574C165.486 117.282 169.134 116.904 172.458 115.482C172.776 115.344 173.124 115.17 173.268 114.804C173.37 114.546 173.346 114.24 173.316 113.958C172.818 108.744 172.326 103.53 171.828 98.31L171.84 98.304Z" fill="#263238"/>
<path d="M178.446 98.52L175.686 95.664C177.372 94.512 179.67 94.752 181.158 96.234C181.986 97.056 182.568 98.214 183.492 98.88C184.56 99.654 185.994 99.72 186.846 100.8C188.112 102.39 187.338 105.108 188.244 107.01C188.796 108.168 189.948 108.978 190.056 110.298C190.158 111.558 189.222 112.704 189.342 113.964C189.408 114.648 189.786 115.356 189.534 115.98C189.324 116.508 188.766 116.688 188.28 116.79C184.794 117.498 181.146 117.12 177.822 115.698C177.504 115.56 177.156 115.386 177.012 115.02C176.91 114.762 176.934 114.456 176.964 114.174C177.462 108.96 177.954 103.74 178.452 98.526L178.446 98.52Z" fill="#263238"/>
<path d="M181.65 120.954C181.65 120.954 179.55 121.986 176.964 124.218C176.424 124.68 175.83 125.082 175.2 125.418C173.502 126.318 171.96 126.834 171.54 126.018C171.444 125.838 171.378 125.646 171.324 125.442C170.97 124.074 171.114 122.148 172.224 121.266C173.472 120.27 174.072 119.424 173.85 118.08C173.73 117.318 173.454 116.532 173.136 115.764L174.576 114.9L179.712 109.716C179.124 112.896 178.95 119.076 181.656 120.96L181.65 120.954Z" fill="#B97964"/>
<path opacity="0.2" d="M173.886 118.368C175.296 117.528 176.85 116.076 176.664 114.414C176.58 113.712 176.43 113.052 176.262 112.626L173.394 116.424C173.628 117.036 173.718 117.444 173.886 118.368Z" fill="black"/>
<path d="M180.696 103.866C180.21 109.146 180.12 111.378 177.396 114.15C173.298 118.314 166.998 116.91 165.912 111.684C164.934 106.974 165.888 99.138 171.072 96.918C176.178 94.734 181.182 98.592 180.696 103.872V103.866Z" fill="#B97964"/>
<path d="M173.862 105.588C173.838 106.146 173.532 106.602 173.184 106.614C172.836 106.62 172.578 106.176 172.602 105.618C172.626 105.06 172.932 104.604 173.28 104.592C173.628 104.586 173.886 105.03 173.862 105.588Z" fill="#263238"/>
<path d="M168.66 105.57C168.636 106.11 168.33 106.554 167.988 106.56C167.64 106.566 167.382 106.134 167.412 105.594C167.436 105.054 167.742 104.61 168.084 104.604C168.432 104.598 168.69 105.03 168.66 105.57Z" fill="#263238"/>
<path d="M174.966 103.644C174.9 103.65 174.828 103.632 174.78 103.584C173.97 102.834 173.052 103.098 173.04 103.098C172.902 103.14 172.77 103.062 172.734 102.924C172.704 102.786 172.788 102.642 172.926 102.6C172.974 102.588 174.12 102.252 175.134 103.188C175.236 103.284 175.236 103.446 175.134 103.554C175.086 103.608 175.026 103.638 174.96 103.644H174.966Z" fill="#263238"/>
<path d="M166.908 102.924C166.854 102.906 166.812 102.864 166.788 102.81C166.74 102.69 166.8 102.54 166.92 102.474C168.126 101.796 169.02 102.312 169.056 102.336C169.164 102.402 169.188 102.546 169.11 102.672C169.038 102.792 168.888 102.84 168.786 102.78C168.75 102.762 168.054 102.372 167.094 102.912C167.034 102.948 166.968 102.954 166.908 102.936V102.924Z" fill="#263238"/>
<path d="M170.076 105.312C170.076 105.312 169.248 107.286 168.318 108.516C168.156 108.732 168.258 109.044 168.51 109.14C169.164 109.38 169.926 109.164 169.926 109.164L170.076 105.312Z" fill="#A24E3F"/>
<path d="M173.478 104.61L172.266 104.322C172.266 104.322 172.926 105.228 173.478 104.61Z" fill="#263238"/>
<path d="M168.204 104.616L166.992 104.328C166.992 104.328 167.652 105.234 168.204 104.616Z" fill="#263238"/>
<path d="M178.866 105.69C178.866 105.69 176.142 101.592 176.286 98.274C176.286 98.274 171.078 96.918 166.92 102.468C166.26 103.35 165.864 104.826 165.27 106.098C165.27 106.098 165.492 95.61 174.402 94.788C183.3 93.966 188.358 107.886 179.49 111.126C179.49 111.126 180.552 108.252 178.866 105.69Z" fill="#263238"/>
<path d="M182.292 108.168C181.668 109.248 180.654 109.932 179.73 110.16C178.332 110.508 177.612 108.264 178.086 106.866C178.518 105.606 179.886 104.772 181.248 105.048C182.586 105.318 183.006 106.932 182.292 108.168Z" fill="#B97964"/>
<path opacity="0.2" d="M179.346 108.036H179.334C179.25 108.036 179.19 107.958 179.196 107.874C179.232 107.334 179.484 106.818 179.892 106.458C180.3 106.098 180.846 105.918 181.386 105.948C181.47 105.948 181.53 106.026 181.524 106.11C181.524 106.194 181.452 106.26 181.368 106.248C180.912 106.218 180.438 106.38 180.09 106.686C179.742 106.992 179.526 107.436 179.49 107.898C179.49 107.976 179.418 108.036 179.34 108.036H179.346Z" fill="black"/>
<path d="M171.612 110.91C171.462 110.91 171.3 110.892 171.126 110.856C171.048 110.838 170.994 110.76 171.012 110.682C171.03 110.604 171.102 110.544 171.192 110.568C172.602 110.856 173.076 109.644 173.1 109.596C173.13 109.518 173.214 109.482 173.292 109.506C173.37 109.536 173.412 109.62 173.382 109.698C173.382 109.71 172.92 110.916 171.618 110.916L171.612 110.91Z" fill="#263238"/>
<path d="M181.968 110.334C181.968 110.928 181.488 111.408 180.894 111.408C180.3 111.408 179.82 110.928 179.82 110.334C179.82 109.74 180.3 109.26 180.894 109.26C181.488 109.26 181.968 109.74 181.968 110.334Z" fill="#F83758"/>
<path d="M217.314 199.386C213.03 198.42 208.572 198.9 204.234 199.572C196.002 200.85 187.794 202.854 180.27 206.556C171.15 207.816 158.46 207.846 156.084 211.434C179.628 221.478 207.468 210.744 218.136 203.958C219.012 203.4 219.978 202.608 219.924 201.534C219.858 200.292 218.484 199.644 217.32 199.38L217.314 199.386Z" fill="#F83758"/>
<g opacity="0.2">
<path d="M217.314 199.386C213.03 198.42 208.572 198.9 204.234 199.572C196.002 200.85 187.794 202.854 180.27 206.556C171.15 207.816 158.46 207.846 156.084 211.434C179.628 221.478 207.468 210.744 218.136 203.958C219.012 203.4 219.978 202.608 219.924 201.534C219.858 200.292 218.484 199.644 217.32 199.38L217.314 199.386Z" fill="black"/>
</g>
<path d="M190.944 125.472C190.944 125.472 192.702 126.156 194.04 129.93C194.964 132.534 199.68 147.39 199.908 149.856C200.262 153.708 198.264 175.332 198.264 175.332L194.37 174.912C194.37 174.912 192.984 151.602 192.93 151.356C192.876 151.116 186.186 133.284 186.186 133.284L190.944 125.472Z" fill="#B97964"/>
<path d="M196.374 221.328C195.51 218.25 193.44 214.896 193.002 212.406C192.612 210.246 193.122 208.776 192.816 203.796C192.462 197.772 191.496 189.774 188.982 183.864C188.982 183.864 193.878 176.196 189 167.778L185.742 162.432L167.832 162.54L181.62 212.262L196.17 254.07L201.192 253.356C200.694 244.41 198.678 230.226 196.38 221.328H196.374Z" fill="#B97964"/>
<path opacity="0.2" d="M192.726 200.286L180.168 203.724L179.706 205.446L180.186 207.102L180.708 208.974C180.708 208.974 183.372 208.044 186.132 207.168C188.892 206.292 192.882 205.098 192.882 205.098L192.726 200.286Z" fill="black"/>
<path d="M194.37 266.904C194.838 266.214 195.438 265.578 196.134 265.026C196.134 265.026 197.688 262.2 196.452 256.374L199.26 254.37C200.232 253.704 201.48 253.53 202.392 253.938C202.518 253.998 202.632 254.07 202.728 254.16C203.13 254.652 203.49 255.174 203.802 255.72C204.834 257.592 205.716 259.536 206.442 261.546L205.866 261.816L204.024 258.24C203.448 257.004 202.776 259.068 203.01 260.568C203.244 262.068 203.13 263.88 199.554 265.554C195.45 267.492 193.65 268.164 194.364 266.91L194.37 266.904Z" fill="black"/>
<path d="M195.774 252.39C195.774 252.39 196.584 256.944 196.698 260.13C196.872 261.72 196.668 263.388 196.098 265.044C196.098 265.044 198.954 264.186 199.506 262.284C200.058 260.382 199.566 254.958 202.404 253.962C202.038 253.71 201.63 253.506 201.186 253.356L200.868 251.688C199.356 251.892 195.774 252.39 195.774 252.39Z" fill="#B97964"/>
<path d="M187.458 134.388L191.868 125.178C189.882 122.208 180.042 119.928 180.042 119.928L173.562 120.282C173.562 120.282 171.072 120.84 168.936 121.536C166.086 122.466 164.55 123.21 163.872 124.794C163.872 124.794 162.51 128.316 163.398 135.51C163.644 137.496 164.31 149.01 162.498 152.322L162.534 153.234C174.378 162.456 184.398 160.914 184.398 160.914C183.864 159.288 183.918 153.918 183.678 152.322C183.852 150.294 183.78 148.746 184.638 145.188C184.806 144.504 187.176 135.06 187.464 134.394L187.458 134.388Z" fill="#B97964"/>
<path d="M160.224 167.244L158.286 212.55L159.84 256.458L165.3 257.862C167.718 249.186 169.68 232.134 170.244 223.242C170.376 220.194 169.392 216.678 169.734 214.272C170.034 212.16 171.018 210.828 172.308 206.034C173.868 200.238 175.446 192.486 174.816 186.48C174.816 186.48 182.154 179.892 179.982 171.144L160.23 167.238L160.224 167.244Z" fill="#B97964"/>
<path opacity="0.2" d="M158.286 212.55C158.286 212.55 160.416 210.522 164.334 211.116C168.252 211.71 170.106 212.694 170.106 212.694L171.168 209.736L162.192 207.192L158.286 209.124V212.556V212.55Z" fill="black"/>
<path d="M152.964 266.784C153.678 266.358 154.494 266.034 155.358 265.83C155.358 265.83 157.968 263.934 159.312 258.126L162.708 257.502C163.872 257.31 165.078 257.682 165.726 258.438C165.816 258.546 165.888 258.66 165.936 258.78C166.092 259.398 166.194 260.022 166.248 260.646C166.386 262.776 166.362 264.912 166.17 267.042H165.534L165.384 263.022C165.384 261.654 163.902 263.244 163.482 264.702C163.062 266.16 162.186 267.75 158.238 267.75C153.696 267.768 151.782 267.612 152.964 266.772V266.784Z" fill="black"/>
<path d="M159.96 256.044C159.96 256.044 159.192 258.696 157.944 261.636C157.428 263.148 156.54 264.57 155.316 265.83C155.316 265.83 158.268 266.262 159.576 264.78C160.884 263.292 162.738 258.168 165.726 258.474C165.504 258.096 165.216 257.736 164.88 257.406C164.394 256.866 159.954 256.05 159.954 256.05L159.96 256.044Z" fill="#B97964"/>
<path d="M194.592 174.834C194.592 174.834 193.032 175.542 192.546 176.874C192.06 178.206 191.322 179.142 191.028 180.162C190.734 181.176 191.934 180.396 192.48 179.856C193.032 179.31 193.662 178.698 194.004 179.178C194.346 179.658 194.844 184.704 195.39 185.316C195.942 185.928 196.116 185.088 196.116 185.088C196.116 185.088 196.272 186.312 196.77 186.378C196.902 186.396 197.232 186.228 197.25 185.658C197.292 184.38 197.232 181.698 197.232 181.698C197.232 181.854 197.538 185.16 197.646 185.652C197.79 186.294 198.186 186.522 198.552 186.426C199.074 186.288 198.834 182.172 198.948 181.992C198.948 181.992 199.008 184.368 199.626 184.686C200.25 185.004 200.292 183.51 200.082 182.184C199.89 180.966 199.824 178.53 199.512 177.312C199.122 175.812 198.522 174.894 197.088 174.642C195.654 174.396 194.586 174.834 194.586 174.834H194.592Z" fill="#B97964"/>
<path d="M158.19 167.076C155.73 179.274 155.7 200.862 156.084 211.434C156.084 211.434 161.46 206.748 170.07 209.892C178.68 213.036 182.352 213.096 186.69 211.722C191.022 210.348 194.424 203.49 206.928 201.09C219.432 198.69 219.906 201.408 219.906 201.408C219.906 201.408 221.406 198.294 215.154 196.116C208.902 193.944 201.414 186.48 197.796 181.734C194.178 176.988 187.38 162.774 185.586 159.126C183.69 155.28 183.81 151.056 183.81 151.056L163.2 149.082C163.2 149.082 160.164 157.326 158.196 167.076H158.19Z" fill="#263238"/>
<path d="M181.968 120.426L179.082 122.742C175.956 125.25 171.684 124.362 169.236 121.194C166.134 121.98 164.652 122.472 164.652 122.472C164.652 122.472 162.51 128.31 163.398 135.504C163.644 137.49 164.31 149.004 162.498 152.316L162.534 153.228C174.378 162.45 184.398 160.908 184.398 160.908C183.864 159.282 183.984 153.63 183.744 152.04C183.918 150.012 183.78 148.746 184.638 145.188C184.806 144.504 187.794 135.648 188.082 134.982L191.736 124.77C189.03 122.022 181.968 120.432 181.968 120.432V120.426Z" fill="#263238"/>
<path d="M162.282 152.226L184.134 154.068L184.14 149.826L163.446 148.05L162.282 152.226Z" fill="#F83758"/>
<path d="M155.904 128.142L160.452 137.238L164.352 134.748L166.998 122.088C166.998 122.088 164.616 122.07 162.678 123.546C160.848 124.938 155.904 128.142 155.904 128.142Z" fill="#263238"/>
<path opacity="0.2" d="M163.38 135.36C163.38 135.36 163.068 132.558 163.23 130.026L163.398 127.494C163.398 127.494 161.586 133.482 161.832 136.356L163.386 135.36H163.38Z" fill="black"/>
<path d="M186.378 134.97L188.406 142.134L196.956 136.842C196.956 136.842 193.98 124.866 191.1 124.506C188.22 124.146 186.372 134.97 186.372 134.97H186.378Z" fill="#263238"/>
<path opacity="0.2" d="M187.134 137.634L188.808 131.622L187.938 140.46L187.134 137.634Z" fill="black"/>
<path d="M224.118 175.974H114.702V267.966H224.118V175.974Z" fill="#F83758"/>
<path opacity="0.2" d="M224.118 175.974H114.702V267.966H224.118V175.974Z" fill="black"/>
<path d="M118.188 171.528L122.868 142.512H143.712L148.956 171.228L118.188 171.528Z" fill="#F83758"/>
<path opacity="0.3" d="M118.188 171.528L122.868 142.512H143.712L148.956 171.228L118.188 171.528Z" fill="white"/>
<path opacity="0.3" d="M140.772 171.156L148.956 171.228L143.712 142.512L140.772 171.156Z" fill="black"/>
<path d="M129.198 144.576C129.198 145.098 128.772 145.524 128.25 145.524C127.728 145.524 127.302 145.098 127.302 144.576C127.302 144.054 127.728 143.628 128.25 143.628C128.772 143.628 129.198 144.054 129.198 144.576Z" fill="#263238"/>
<path d="M138.348 144.576C138.348 145.098 137.922 145.524 137.4 145.524C136.878 145.524 136.452 145.098 136.452 144.576C136.452 144.054 136.878 143.628 137.4 143.628C137.922 143.628 138.348 144.054 138.348 144.576Z" fill="#263238"/>
<path d="M128.412 144.27C128.412 142.692 128.418 141.03 129.264 139.638C130.11 138.246 131.634 137.664 133.224 137.664C134.814 137.664 136.236 138.246 136.836 139.788C137.436 141.33 137.082 142.944 137.094 144.51C137.094 144.798 137.544 144.798 137.544 144.51C137.532 143.07 137.802 141.594 137.436 140.178C137.142 139.056 136.458 138.072 135.372 137.598C133.08 136.608 130.002 137.346 128.772 139.59C127.992 141.018 127.968 142.674 127.968 144.264C127.968 144.552 128.418 144.552 128.418 144.264L128.412 144.27Z" fill="#263238"/>
<path opacity="0.1" d="M144.564 169.668L143.712 142.512L140.772 171.156L144.564 169.668Z" fill="black"/>
<path d="M136.62 156.834H125.568L126.006 154.2H137.058L136.62 156.834Z" fill="white"/>
<path opacity="0.3" d="M224.118 175.194H114.702V180.636H224.118V175.194Z" fill="black"/>
<path d="M227.694 170.592H109.65V176.682H227.694V170.592Z" fill="#F83758"/>
<path d="M177.828 208.332H156.294V222.048H177.828V208.332Z" fill="#263238"/>
<path opacity="0.3" d="M177.828 208.332H156.294V222.048H177.828V208.332Z" fill="white"/>
<path d="M179.184 206.784H154.932V212.526H179.184V206.784Z" fill="#263238"/>
<path opacity="0.3" d="M179.184 206.784H154.932V212.526H179.184V206.784Z" fill="white"/>
<path opacity="0.3" d="M177.828 212.574H156.294V213.99H177.828V212.574Z" fill="black"/>
<path opacity="0.3" d="M170.502 208.602H163.614C163.24 208.602 162.936 208.906 162.936 209.28V210.006C162.936 210.38 163.24 210.684 163.614 210.684H170.502C170.876 210.684 171.18 210.38 171.18 210.006V209.28C171.18 208.906 170.876 208.602 170.502 208.602Z" fill="black"/>
<path d="M184.344 221.97H89.85V267.966H184.344V221.97Z" fill="#263238"/>
<path d="M102.306 208.62L101.856 208.596C101.874 208.272 101.886 207.924 101.904 207.57C102 205.254 102.126 202.368 103.368 200.43C104.658 198.42 106.842 197.226 109.866 196.872C112.596 196.554 115.356 197.712 116.904 199.818C118.596 202.116 118.722 205.158 118.704 208.08H118.254C118.266 205.236 118.146 202.278 116.538 200.088C115.08 198.108 112.482 197.022 109.914 197.322C107.034 197.658 104.958 198.786 103.74 200.676C102.558 202.512 102.444 205.332 102.348 207.594C102.33 207.948 102.318 208.296 102.3 208.62H102.306Z" fill="#263238"/>
<path d="M121.896 221.97H98.67L101.058 206.874H120.006L121.896 221.97Z" fill="#F83758"/>
<path opacity="0.3" d="M101.058 206.874C101.058 206.874 103.914 214.392 110.28 214.422C116.646 214.452 120.006 206.874 120.006 206.874C120.006 206.874 116.886 215.88 110.28 215.748C103.674 215.61 101.058 206.874 101.058 206.874Z" fill="black"/>
<path d="M112.254 211.686H108.474V212.418H112.254V211.686Z" fill="#263238"/>
<path d="M151.362 220.71C150.57 220.236 149.67 219.876 148.704 219.648C148.404 219.69 145.368 220.044 143.982 218.466C142.524 216.804 140.46 211.086 137.124 211.422C137.148 211.386 137.172 211.35 137.196 211.314C137.172 211.338 137.148 211.362 137.124 211.386C137.022 211.506 136.944 211.632 136.89 211.77C136.716 212.46 136.602 213.156 136.542 213.852C136.386 216.234 136.494 219.42 136.704 221.796H137.412L137.508 216.51C137.508 214.986 139.158 216.756 139.632 218.382C140.1 220.008 141.078 221.79 145.482 221.796C150.552 221.82 152.682 221.652 151.374 220.716L151.362 220.71Z" fill="#F83758"/>
<path opacity="0.1" d="M151.362 220.71C150.57 220.236 149.67 219.876 148.704 219.648C148.404 219.69 145.368 220.044 143.982 218.466C142.524 216.804 140.46 211.086 137.124 211.422C137.148 211.386 137.172 211.35 137.196 211.314C137.172 211.338 137.148 211.362 137.124 211.386C137.022 211.506 136.944 211.632 136.89 211.77C136.716 212.46 136.602 213.156 136.542 213.852C136.386 216.234 136.494 219.42 136.704 221.796H137.412L137.508 216.51C137.508 214.986 139.158 216.756 139.632 218.382C140.1 220.008 141.078 221.79 145.482 221.796C150.552 221.82 152.682 221.652 151.374 220.716L151.362 220.71Z" fill="black"/>
<path d="M142.998 220.71C142.206 220.236 141.306 219.876 140.34 219.648C140.04 219.69 137.004 220.044 135.618 218.466C134.16 216.804 132.096 211.086 128.76 211.422C128.784 211.386 128.808 211.35 128.832 211.314C128.808 211.338 128.784 211.362 128.76 211.386C128.658 211.506 128.58 211.632 128.526 211.77C128.352 212.46 128.238 213.156 128.178 213.852C128.022 216.234 128.13 219.42 128.34 221.796H129.048L129.144 216.51C129.144 214.986 130.794 216.756 131.268 218.382C131.736 220.008 132.714 221.79 137.118 221.796C142.188 221.82 144.318 221.652 143.01 220.716L142.998 220.71Z" fill="#F83758"/>
</svg>
