<svg width="11" height="11" viewBox="0 0 11 11" fill="none" xmlns="http://www.w3.org/2000/svg">
<path opacity="0.4" d="M4.87068 10.6952C5.22158 11.0346 5.77842 11.0346 6.12932 10.6952C6.37845 10.4543 6.7433 10.3767 7.06891 10.4955C7.52752 10.6628 8.03621 10.4364 8.21873 9.98357C8.34831 9.66211 8.65008 9.44286 8.99586 9.41896C9.48288 9.38529 9.85547 8.97149 9.83805 8.48361C9.82568 8.13723 10.0122 7.8142 10.3183 7.65172C10.7496 7.42287 10.9216 6.8933 10.7073 6.45469C10.5551 6.14329 10.5941 5.77232 10.8077 5.49937C11.1086 5.11491 11.0503 4.56113 10.6761 4.24763C10.4104 4.02505 10.2952 3.6703 10.3793 3.33406C10.4978 2.86047 10.2194 2.37824 9.74997 2.24405C9.41672 2.14878 9.16713 1.87158 9.10721 1.5302C9.02282 1.04936 8.57234 0.722064 8.08896 0.79039C7.74577 0.838901 7.40501 0.687186 7.21142 0.399687C6.93875 -0.00525538 6.39409 -0.121027 5.98029 0.138002C5.6865 0.321906 5.3135 0.321906 5.01971 0.138002C4.60591 -0.121027 4.06125 -0.00525538 3.78858 0.399687C3.59499 0.687186 3.25423 0.838901 2.91104 0.79039C2.42766 0.722064 1.97718 1.04936 1.89278 1.5302C1.83287 1.87158 1.58328 2.14878 1.25003 2.24405C0.780647 2.37824 0.502232 2.86047 0.620712 3.33406C0.70483 3.6703 0.589565 4.02505 0.323877 4.24763C-0.0503464 4.56113 -0.108551 5.11491 0.192313 5.49937C0.405919 5.77232 0.444908 6.14329 0.292721 6.45469C0.0783651 6.8933 0.250435 7.42288 0.681661 7.65172C0.98782 7.8142 1.17432 8.13723 1.16195 8.48361C1.14453 8.97149 1.51712 9.38529 2.00414 9.41896C2.34992 9.44286 2.65169 9.66211 2.78127 9.98357C2.96379 10.4364 3.47248 10.6628 3.93109 10.4955C4.2567 10.3767 4.62155 10.4543 4.87068 10.6952Z" fill="#F83758"/>
</svg>
