<svg width="12" height="12" viewBox="0 0 12 12" fill="none" xmlns="http://www.w3.org/2000/svg">
<path d="M1.22773 11.9992H9.71024C10.0357 11.9989 10.3478 11.8695 10.578 11.6393C10.8082 11.4091 10.9377 11.097 10.938 10.7715V5.86059C10.938 5.67563 10.7881 5.52575 10.6031 5.52575C10.4182 5.52575 10.2683 5.67563 10.2683 5.86059V10.7715C10.2682 10.9195 10.2093 11.0613 10.1047 11.1659C10 11.2706 9.85822 11.3295 9.71024 11.3296H1.22773C1.07974 11.3295 0.937948 11.2706 0.833301 11.1659C0.728664 11.0613 0.669768 10.9195 0.669669 10.7715V2.28901C0.669769 2.14102 0.728664 1.99923 0.833301 1.89458C0.937938 1.78994 1.07974 1.73105 1.22773 1.73095H6.13866C6.32361 1.73095 6.47349 1.58107 6.47349 1.39611C6.47349 1.21115 6.32361 1.06128 6.13866 1.06128H1.22773C0.902258 1.06157 0.590153 1.19102 0.359939 1.42121C0.129725 1.65141 0.000280624 1.96353 0 2.28901V10.7715C0.000298967 11.097 0.129748 11.4091 0.359939 11.6393C0.59013 11.8695 0.90226 11.999 1.22773 11.9992Z" fill="black"/>
<path d="M3.64567 6.38499L3.59336 7.59139C3.58369 7.80435 3.66172 8.01202 3.80911 8.16609C3.95649 8.32015 4.16047 8.40725 4.37375 8.40705C4.38511 8.40705 4.39637 8.40685 4.40733 8.40635L5.61414 8.35383C5.80956 8.34566 5.99482 8.26425 6.13294 8.12563L10.5556 3.70273L11.7057 2.55304C11.8941 2.3647 11.9999 2.1092 11.9999 1.84271C11.9999 1.57624 11.8941 1.32072 11.7057 1.13237L10.8669 0.293278C10.6782 0.105431 10.4228 -0.000101971 10.1567 7.39359e-08C9.89037 7.39359e-08 9.63498 0.105533 9.44642 0.293584L8.29632 1.44348L3.87317 5.86663H3.87307C3.73505 6.00485 3.65384 6.1898 3.64557 6.38502L3.64567 6.38499ZM9.91992 0.767404H9.91982C10.0506 0.636758 10.2624 0.636658 10.3934 0.767204L11.2322 1.6063H11.2322C11.2949 1.66898 11.3302 1.75408 11.3302 1.84287C11.3302 1.93166 11.2949 2.01677 11.2322 2.07955L10.3187 2.99267L9.00647 1.68035L9.91992 0.767404ZM4.31458 6.41407H4.31448C4.31588 6.38617 4.32754 6.35976 4.34717 6.33993L8.53306 2.15378L9.84538 3.46611L5.65898 7.65251C5.63945 7.67224 5.61304 7.68371 5.58534 7.6848L4.37853 7.73732C4.34694 7.74031 4.31585 7.72825 4.29442 7.70483C4.2725 7.68271 4.26074 7.65231 4.26213 7.62112L4.31458 6.41407Z" fill="black"/>
</svg>
