<svg width="32" height="9" viewBox="0 0 32 9" fill="none" xmlns="http://www.w3.org/2000/svg">
<path d="M3.90909 0C1.75909 0 0 1.8 0 4C0 6.2 1.75909 8 3.90909 8C6.05909 8 7.81818 6.2 7.81818 4C7.81818 1.8 6.05909 0 3.90909 0ZM27.3636 0C25.2136 0 23.4545 1.8 23.4545 4C23.4545 6.2 25.2136 8 27.3636 8C29.5136 8 31.2727 6.2 31.2727 4C31.2727 1.8 29.5136 0 27.3636 0ZM15.6364 0C13.4864 0 11.7273 1.8 11.7273 4C11.7273 6.2 13.4864 8 15.6364 8C17.7864 8 19.5455 6.2 19.5455 4C19.5455 1.8 17.7864 0 15.6364 0Z" fill="#DEDBDB"/>
<path d="M15.5 0C13.025 0 11 2.025 11 4.5C11 6.975 13.025 9 15.5 9C17.975 9 20 6.975 20 4.5C20 2.025 17.975 0 15.5 0Z" fill="#FFA3B3"/>
</svg>
