<svg width="16" height="16" viewBox="0 0 16 16" fill="none" xmlns="http://www.w3.org/2000/svg">
<g clip-path="url(#clip0_0_124)">
<path d="M4.66667 7.33325H6V8.66659H4.66667V7.33325ZM14 3.99992V13.3333C14 14.0666 13.4 14.6666 12.6667 14.6666H3.33333C2.59333 14.6666 2 14.0666 2 13.3333L2.00667 3.99992C2.00667 3.26659 2.59333 2.66659 3.33333 2.66659H4V1.33325H5.33333V2.66659H10.6667V1.33325H12V2.66659H12.6667C13.4 2.66659 14 3.26659 14 3.99992ZM3.33333 5.33325H12.6667V3.99992H3.33333V5.33325ZM12.6667 13.3333V6.66659H3.33333V13.3333H12.6667ZM10 8.66659H11.3333V7.33325H10V8.66659ZM7.33333 8.66659H8.66667V7.33325H7.33333V8.66659Z" fill="white"/>
</g>
<defs>
<clipPath id="clip0_0_124">
<rect width="16" height="16" fill="white"/>
</clipPath>
</defs>
</svg>
