<svg width="16" height="16" viewBox="0 0 16 16" fill="none" xmlns="http://www.w3.org/2000/svg">
<g clip-path="url(#clip0_1_17347)">
<path d="M8.00004 2.66671C9.28671 2.66671 11.3334 3.60004 11.3334 6.10004C11.3334 7.54004 10.1867 9.21337 8.00004 10.98C5.81337 9.21337 4.66671 7.53337 4.66671 6.10004C4.66671 3.60004 6.71337 2.66671 8.00004 2.66671ZM8.00004 1.33337C5.82004 1.33337 3.33337 2.97337 3.33337 6.10004C3.33337 8.18004 4.88671 10.3734 8.00004 12.6667C11.1134 10.3734 12.6667 8.18004 12.6667 6.10004C12.6667 2.97337 10.18 1.33337 8.00004 1.33337Z" fill="#828282"/>
<path d="M8.00004 4.66663C7.26671 4.66663 6.66671 5.26663 6.66671 5.99996C6.66671 6.73329 7.26671 7.33329 8.00004 7.33329C8.35366 7.33329 8.6928 7.19282 8.94285 6.94277C9.1929 6.69272 9.33337 6.35358 9.33337 5.99996C9.33337 5.64634 9.1929 5.3072 8.94285 5.05715C8.6928 4.8071 8.35366 4.66663 8.00004 4.66663ZM3.33337 13.3333H12.6667V14.6666H3.33337V13.3333Z" fill="#828282"/>
</g>
<defs>
<clipPath id="clip0_1_17347">
<rect width="16" height="16" fill="white"/>
</clipPath>
</defs>
</svg>
