<svg width="16" height="16" viewBox="0 0 16 16" fill="none" xmlns="http://www.w3.org/2000/svg">
<g clip-path="url(#clip0_1_17353)">
<path d="M12.4 13H14V14.3334H10V10.3334H11.3334V12.1534C12.5534 11.1734 13.3334 9.68003 13.3334 8.00003C13.3334 5.2867 11.2934 3.04003 8.66671 2.71337V1.3667C12.0334 1.70003 14.6667 4.54003 14.6667 8.00003C14.6667 9.99337 13.7867 11.78 12.4 13ZM2.66671 8.00003C2.66671 6.32003 3.44671 4.82003 4.66671 3.8467V5.6667H6.00004V1.6667H2.00004V3.00003H3.60004C2.21337 4.22003 1.33337 6.0067 1.33337 8.00003C1.33337 11.46 3.96671 14.3 7.33337 14.6334V13.2867C4.70671 12.96 2.66671 10.7134 2.66671 8.00003ZM10.8267 5.4067L7.05337 9.18003L5.16671 7.29337L4.22671 8.23337L7.05337 11.06L11.7667 6.3467L10.8267 5.4067Z" fill="#828282"/>
</g>
<defs>
<clipPath id="clip0_1_17353">
<rect width="16" height="16" fill="white"/>
</clipPath>
</defs>
</svg>
