<svg width="20" height="20" viewBox="0 0 20 20" fill="none" xmlns="http://www.w3.org/2000/svg">
<g clip-path="url(#clip0_0_139)">
<path d="M5.83337 15C4.91671 15 4.17504 15.75 4.17504 16.6667C4.17504 17.5834 4.91671 18.3334 5.83337 18.3334C6.75004 18.3334 7.50004 17.5834 7.50004 16.6667C7.50004 15.75 6.75004 15 5.83337 15ZM14.1667 15C13.25 15 12.5084 15.75 12.5084 16.6667C12.5084 17.5834 13.25 18.3334 14.1667 18.3334C15.0834 18.3334 15.8334 17.5834 15.8334 16.6667C15.8334 15.75 15.0834 15 14.1667 15ZM12.9584 10.8334C13.5834 10.8334 14.1334 10.4917 14.4167 9.97502L17.4 4.56669C17.7084 4.01669 17.3084 3.33335 16.675 3.33335H4.34171L3.55837 1.66669H0.833374V3.33335H2.50004L5.50004 9.65835L4.37504 11.6917C3.76671 12.8084 4.56671 14.1667 5.83337 14.1667H15.8334V12.5H5.83337L6.75004 10.8334H12.9584ZM5.13337 5.00002H15.2584L12.9584 9.16669H7.10837L5.13337 5.00002Z" fill="#323232"/>
</g>
<defs>
<clipPath id="clip0_0_139">
<rect width="20" height="20" fill="white"/>
</clipPath>
</defs>
</svg>
