<svg width="10" height="12" viewBox="0 0 10 12" fill="none" xmlns="http://www.w3.org/2000/svg">
<path d="M5.87502 12L0.795165 7.30317V6.13576H3.37943C4.1328 6.13576 4.80156 5.92151 5.38571 5.493C5.96986 5.06448 6.292 4.4914 6.35214 3.77375H0V2.71494H6.19006C5.99535 2.23077 5.64416 1.83371 5.13647 1.52374C4.62878 1.21379 4.0431 1.05881 3.37943 1.05881H0V0H9.14436V1.05881H6.28481C6.5672 1.25881 6.81442 1.50247 7.02648 1.78981C7.23852 2.07715 7.38175 2.38552 7.45617 2.71494H9.14436V3.77375H7.55709C7.50205 4.77375 7.06879 5.59389 6.25731 6.23416C5.44584 6.87442 4.48654 7.19455 3.37943 7.19455H2.33651L7.53107 12H5.87502Z" fill="#4C5059"/>
</svg>
