<svg width="16" height="16" viewBox="0 0 16 16" fill="none" xmlns="http://www.w3.org/2000/svg">
<g clip-path="url(#clip0_0_112)">
<path d="M14.6667 3.79995L11.6 1.19995L10.7333 2.19995L13.8 4.79995L14.6667 3.79995ZM5.26668 2.26662L4.40001 1.26662L1.33334 3.79995L2.20001 4.79995L5.26668 2.26662ZM8.33334 5.33328H7.33334V9.33328L10.4667 11.2666L11 10.4666L8.33334 8.86662V5.33328ZM8.00001 2.66662C4.66668 2.66662 2.00001 5.33328 2.00001 8.66662C2.00001 12 4.66668 14.6666 8.00001 14.6666C11.3333 14.6666 14 12 14 8.66662C14 5.33328 11.3333 2.66662 8.00001 2.66662ZM8.00001 13.3333C5.40001 13.3333 3.33334 11.2666 3.33334 8.66662C3.33334 6.06662 5.40001 3.99995 8.00001 3.99995C10.6 3.99995 12.6667 6.06662 12.6667 8.66662C12.6667 11.2666 10.6 13.3333 8.00001 13.3333Z" fill="white"/>
</g>
<defs>
<clipPath id="clip0_0_112">
<rect width="16" height="16" fill="white"/>
</clipPath>
</defs>
</svg>
