<svg width="20" height="16" viewBox="0 0 20 16" fill="none" xmlns="http://www.w3.org/2000/svg">
<path d="M10.0001 15.7068L8.83813 14.7994C7.09318 13.4243 5.65019 12.2426 4.50914 11.2543C3.36812 10.266 2.46393 9.38649 1.79659 8.61568C1.12924 7.84488 0.66297 7.14178 0.397793 6.50638C0.132598 5.87098 0 5.22621 0 4.57205C0 3.2743 0.503715 2.18785 1.51114 1.31271C2.51857 0.43757 3.76925 0 5.26317 0C6.18222 0 7.05065 0.1867 7.86846 0.560102C8.68627 0.933488 9.39681 1.46895 10.0001 2.16648C10.6033 1.46895 11.3138 0.933488 12.1317 0.560102C12.9495 0.1867 13.8179 0 14.7369 0C16.2309 0 17.4815 0.43757 18.489 1.31271C19.4964 2.18785 20.0001 3.2743 20.0001 4.57205C20.0001 5.22621 19.8675 5.87098 19.6023 6.50638C19.3371 7.14178 18.8709 7.84488 18.2035 8.61568C17.5362 9.38649 16.6337 10.266 15.496 11.2543C14.3584 12.2426 12.9137 13.4243 11.162 14.7994L10.0001 15.7068ZM10.0001 13.8534C11.6843 12.5368 13.0703 11.4085 14.158 10.4683C15.2457 9.52806 16.1054 8.71125 16.737 8.01782C17.3685 7.32439 17.8071 6.70862 18.0528 6.17052C18.2984 5.63241 18.4212 5.09959 18.4212 4.57205C18.4212 3.65764 18.0703 2.89562 17.3685 2.28601C16.6668 1.6764 15.7896 1.3716 14.7369 1.3716C13.9056 1.3716 13.1374 1.57647 12.4323 1.9862C11.7271 2.39592 11.1688 2.96596 10.7571 3.69634H9.24297C8.82462 2.96011 8.26456 2.3886 7.5628 1.98179C6.86104 1.575 6.0945 1.3716 5.26317 1.3716C4.21729 1.3716 3.34177 1.6764 2.63663 2.28601C1.9315 2.89562 1.57893 3.65764 1.57893 4.57205C1.57893 5.09959 1.70174 5.63241 1.94736 6.17052C2.19297 6.70862 2.63157 7.32439 3.26316 8.01782C3.89474 8.71125 4.7544 9.5266 5.84213 10.4639C6.92986 11.4012 8.31583 12.531 10.0001 13.8534Z" fill="black"/>
</svg>
