<svg width="16" height="16" viewBox="0 0 16 16" fill="none" xmlns="http://www.w3.org/2000/svg">
<g clip-path="url(#clip0_1_17350)">
<path d="M12 5.33329H11.3333V3.99996C11.3333 2.15996 9.83996 0.666626 7.99996 0.666626C6.15996 0.666626 4.66663 2.15996 4.66663 3.99996V5.33329H3.99996C3.26663 5.33329 2.66663 5.93329 2.66663 6.66663V13.3333C2.66663 14.0666 3.26663 14.6666 3.99996 14.6666H12C12.7333 14.6666 13.3333 14.0666 13.3333 13.3333V6.66663C13.3333 5.93329 12.7333 5.33329 12 5.33329ZM5.99996 3.99996C5.99996 2.89329 6.89329 1.99996 7.99996 1.99996C9.10663 1.99996 9.99996 2.89329 9.99996 3.99996V5.33329H5.99996V3.99996ZM12 13.3333H3.99996V6.66663H12V13.3333ZM7.99996 11.3333C8.73329 11.3333 9.33329 10.7333 9.33329 9.99996C9.33329 9.26663 8.73329 8.66663 7.99996 8.66663C7.26663 8.66663 6.66663 9.26663 6.66663 9.99996C6.66663 10.7333 7.26663 11.3333 7.99996 11.3333Z" fill="#828282"/>
</g>
<defs>
<clipPath id="clip0_1_17350">
<rect width="16" height="16" fill="white"/>
</clipPath>
</defs>
</svg>
