<svg width="7" height="7" viewBox="0 0 7 7" fill="none" xmlns="http://www.w3.org/2000/svg">
<path opacity="0.4" d="M3.09953 6.80591C3.32283 7.02189 3.67717 7.02189 3.90047 6.80591C4.059 6.65257 4.29118 6.60322 4.49838 6.67882C4.79021 6.78531 5.11392 6.64118 5.23007 6.35305C5.31253 6.14849 5.50456 6.00897 5.72459 5.99376C6.03451 5.97234 6.27161 5.70901 6.26052 5.39855C6.25265 5.17813 6.37133 4.97257 6.56615 4.86918C6.84056 4.72355 6.95006 4.38655 6.81366 4.10744C6.71681 3.90928 6.74162 3.67322 6.87755 3.49953C7.06901 3.25488 7.03197 2.90248 6.79383 2.70298C6.62476 2.56134 6.55141 2.3356 6.60494 2.12163C6.68033 1.82026 6.50316 1.51339 6.20447 1.428C5.99241 1.36738 5.83358 1.19098 5.79545 0.973744C5.74175 0.667762 5.45509 0.459486 5.14748 0.502966C4.9291 0.533836 4.71225 0.437291 4.58907 0.254342C4.41555 -0.0033438 4.06896 -0.0770155 3.80563 0.0878182C3.61868 0.204845 3.38132 0.204845 3.19437 0.0878182C2.93104 -0.077015 2.58445 -0.0033438 2.41093 0.254342C2.28775 0.437292 2.0709 0.533836 1.85252 0.502966C1.54491 0.459486 1.25825 0.667762 1.20455 0.973744C1.16642 1.19098 1.00759 1.36738 0.795529 1.428C0.496837 1.51339 0.319667 1.82026 0.395062 2.12163C0.44859 2.3356 0.375241 2.56134 0.20617 2.70298C-0.0319667 2.90248 -0.0690053 3.25488 0.12245 3.49953C0.258378 3.67322 0.283189 3.90928 0.186345 4.10744C0.0499388 4.38655 0.159436 4.72355 0.433847 4.86918C0.628671 4.97257 0.747353 5.17813 0.73948 5.39855C0.728391 5.70901 0.965491 5.97234 1.27541 5.99376C1.49544 6.00897 1.68747 6.14849 1.76993 6.35305C1.88608 6.64118 2.20979 6.78531 2.50162 6.67882C2.70882 6.60322 2.941 6.65257 3.09953 6.80591Z" fill="#F83758"/>
</svg>
