<svg width="9" height="11" viewBox="0 0 9 11" fill="none" xmlns="http://www.w3.org/2000/svg">
<path fill-rule="evenodd" clip-rule="evenodd" d="M5.91611 1.75524C5.55653 2.20279 4.95271 2.53846 4.47101 2.53846C4.41673 2.53846 4.36245 2.53147 4.32853 2.52447C4.32175 2.4965 4.30818 2.41258 4.30818 2.32867C4.30818 1.75524 4.58634 1.1958 4.89165 0.83916C5.27837 0.370629 5.9229 0.020979 6.45887 0C6.47244 0.0629371 6.47923 0.13986 6.47923 0.216783C6.47923 0.783216 6.24177 1.34965 5.91611 1.75524ZM3.55666 10.7915C3.31488 10.8986 3.08576 11 2.77487 11C2.10999 11 1.64864 10.3706 1.11945 9.60139C0.502056 8.6923 0 7.28671 0 5.95804C0 3.81818 1.35012 2.68531 2.67989 2.68531C3.06801 2.68531 3.42265 2.832 3.73799 2.96243C3.99041 3.06684 4.21765 3.16084 4.41673 3.16084C4.58941 3.16084 4.8046 3.07318 5.05542 2.97102C5.40574 2.82833 5.82555 2.65734 6.29605 2.65734C6.59457 2.65734 7.68688 2.68531 8.40604 3.74825C8.40191 3.75155 8.39312 3.75753 8.38031 3.76625C8.20337 3.88665 7.25945 4.52892 7.25945 5.84615C7.25945 7.47552 8.63671 8.05594 8.6842 8.06992C8.68298 8.07306 8.68018 8.08202 8.67571 8.09627C8.63043 8.24071 8.4146 8.92924 7.95147 9.62936C7.49691 10.3007 7.01521 10.986 6.29605 10.986C5.94159 10.986 5.71573 10.8829 5.48254 10.7765C5.23367 10.6629 4.97645 10.5454 4.54564 10.5454C4.11251 10.5454 3.82669 10.672 3.55666 10.7915Z" fill="black"/>
</svg>
