<svg width="350" height="350" viewBox="0 0 350 350" fill="none" xmlns="http://www.w3.org/2000/svg">
<path d="M350 267.68H0V267.855H350V267.68Z" fill="#EBEBEB"/>
<path d="M314.93 278.943H291.746V279.118H314.93V278.943Z" fill="#EBEBEB"/>
<path d="M231.854 280.847H225.771V281.022H231.854V280.847Z" fill="#EBEBEB"/>
<path d="M291.046 272.447H277.613V272.622H291.046V272.447Z" fill="#EBEBEB"/>
<path d="M66.955 273.623H36.722V273.798H66.955V273.623Z" fill="#EBEBEB"/>
<path d="M77.623 273.623H73.192V273.798H77.623V273.623Z" fill="#EBEBEB"/>
<path d="M157.605 276.577H92.0291V276.752H157.605V276.577Z" fill="#EBEBEB"/>
<path d="M165.9 236.46H30.7369C29.6781 236.458 28.6632 236.036 27.9152 235.287C27.1671 234.537 26.7469 233.522 26.7469 232.463V42.462C26.7562 41.4092 27.1804 40.4026 27.9275 39.6608C28.6745 38.9189 29.6841 38.5018 30.7369 38.5H165.9C166.96 38.5 167.977 38.9211 168.726 39.6707C169.476 40.4203 169.897 41.4369 169.897 42.497V232.463C169.897 233.523 169.476 234.54 168.726 235.289C167.977 236.039 166.96 236.46 165.9 236.46ZM30.7369 38.64C29.7245 38.6419 28.7542 39.0453 28.0389 39.7619C27.3237 40.4785 26.9219 41.4496 26.9219 42.462V232.463C26.9219 233.475 27.3237 234.447 28.0389 235.163C28.7542 235.88 29.7245 236.283 30.7369 236.285H165.9C166.913 236.283 167.884 235.88 168.6 235.164C169.317 234.447 169.72 233.476 169.722 232.463V42.462C169.72 41.4489 169.317 40.4778 168.6 39.7615C167.884 39.0451 166.913 38.6419 165.9 38.64H30.7369Z" fill="#EBEBEB"/>
<path d="M317.317 236.46H182.147C181.088 236.458 180.072 236.036 179.323 235.287C178.574 234.538 178.152 233.522 178.15 232.463V42.462C178.161 41.4086 178.587 40.402 179.335 39.6603C180.083 38.9187 181.094 38.5018 182.147 38.5H317.317C318.369 38.5036 319.376 38.9216 320.122 39.6632C320.868 40.4048 321.291 41.4104 321.3 42.462V232.463C321.3 233.521 320.881 234.535 320.134 235.284C319.388 236.034 318.375 236.456 317.317 236.46ZM182.147 38.64C181.134 38.6419 180.163 39.0451 179.447 39.7615C178.73 40.4778 178.327 41.4489 178.325 42.462V232.463C178.327 233.476 178.73 234.447 179.447 235.164C180.163 235.88 181.134 236.283 182.147 236.285H317.317C318.33 236.283 319.301 235.88 320.018 235.164C320.734 234.447 321.137 233.476 321.139 232.463V42.462C321.137 41.4489 320.734 40.4778 320.018 39.7615C319.301 39.0451 318.33 38.6419 317.317 38.64H182.147Z" fill="#EBEBEB"/>
<path d="M233.863 266C233.354 266.002 232.866 266.205 232.506 266.566C232.147 266.927 231.945 267.416 231.945 267.925H251.237C251.237 267.414 251.034 266.925 250.673 266.564C250.312 266.203 249.823 266 249.312 266H243.908V233.1H248.108V189H243.908V175.7H117.348V189H114.45V233.1H117.348V266H111.944C111.434 266 110.944 266.203 110.583 266.564C110.222 266.925 110.019 267.414 110.019 267.925H129.311C129.311 267.417 129.11 266.929 128.752 266.569C128.394 266.208 127.908 266.004 127.4 266H121.989V233.1H239.274V266H233.863ZM121.982 189V180.18H239.274V189H121.982Z" fill="#E0E0E0"/>
<path d="M299.257 116.655H267.946V159.327H281.932V267.925H285.264V159.327H299.257V116.655Z" fill="#F0F0F0"/>
<path d="M127.155 66.43V102.011H58.135V66.43H62.391V55.832H64.652V66.43H120.638V55.832H122.899V66.43H127.155Z" fill="#F0F0F0"/>
<path d="M231.126 66.43V102.011H162.106V66.43H166.362V55.832H168.623V66.43H224.602V55.832H226.87V66.43H231.126Z" fill="#F0F0F0"/>
<path d="M173.6 266C173.09 266 172.6 266.203 172.239 266.564C171.878 266.925 171.675 267.414 171.675 267.925H190.96C190.96 267.416 190.758 266.927 190.399 266.566C190.039 266.205 189.551 266.002 189.042 266H183.631V233.1H187.831V189H183.631V175.7H57.071V189H54.173V233.1H57.071V266H51.667C51.4146 266 51.1646 266.05 50.9314 266.147C50.6983 266.243 50.4865 266.385 50.3083 266.564C50.1301 266.743 49.989 266.955 49.893 267.189C49.797 267.422 49.7481 267.673 49.749 267.925H69.041C69.041 267.414 68.8382 266.925 68.4772 266.564C68.1162 266.203 67.6266 266 67.116 266H61.712V233.1H178.997V266H173.6ZM61.712 189V180.18H178.997V189H61.712Z" fill="#EBEBEB"/>
<path d="M175 299.292C249.958 299.292 310.723 295.744 310.723 291.368C310.723 286.992 249.958 283.444 175 283.444C100.042 283.444 39.277 286.992 39.277 291.368C39.277 295.744 100.042 299.292 175 299.292Z" fill="#F5F5F5"/>
<path d="M286.209 273.098C286.209 273.098 287.196 265.839 291.844 265.041C296.492 264.243 295.085 260.736 296.296 259.378C297.507 258.02 300.664 262.031 297.962 265.916C295.26 269.801 297.465 268.576 296.296 272.216C295.127 275.856 285.782 279.118 286.209 273.098Z" fill="#263238"/>
<path d="M286.398 278.103C286.359 278.113 286.318 278.113 286.279 278.103C286.244 278.087 286.213 278.065 286.187 278.037C286.161 278.009 286.141 277.976 286.128 277.94C286.115 277.904 286.109 277.866 286.111 277.828C286.113 277.79 286.123 277.752 286.139 277.718C286.174 277.648 289.639 270.249 287.805 258.419C287.221 255.015 286.282 251.681 285.005 248.472C282.8 242.466 280.896 237.272 285.061 228.207C286.349 225.407 287.665 222.789 288.932 220.262C293.629 210.938 297.332 203.567 294.637 196.245C294.622 196.209 294.615 196.171 294.616 196.132C294.616 196.094 294.624 196.055 294.64 196.02C294.656 195.985 294.678 195.953 294.707 195.926C294.735 195.9 294.768 195.88 294.805 195.866C294.841 195.853 294.88 195.847 294.918 195.849C294.957 195.852 294.994 195.861 295.029 195.879C295.064 195.896 295.095 195.919 295.12 195.949C295.145 195.978 295.164 196.012 295.176 196.049C297.976 203.602 294.21 211.071 289.45 220.549C288.183 223.069 286.867 225.673 285.579 228.473C281.519 237.321 283.297 242.165 285.544 248.297C286.838 251.524 287.795 254.876 288.4 258.3C290.262 270.326 286.72 277.865 286.685 277.942C286.66 277.995 286.618 278.039 286.567 278.068C286.516 278.097 286.457 278.109 286.398 278.103Z" fill="#263238"/>
<path d="M289.1 276.367C289.1 276.367 292.103 271.838 287.77 269.514C283.437 267.19 282.569 269.059 279.888 267.414C277.207 265.769 275.177 261.688 274.722 264.278C274.267 266.868 277.361 268.352 276.269 269.535C275.177 270.718 283.535 278.404 289.1 276.367Z" fill="#263238"/>
<path d="M296.163 199.899C296.163 199.899 299.089 191.009 292.439 190.799C285.789 190.589 293.118 198.947 296.163 199.899Z" fill="#263238"/>
<path d="M290.388 206.731C290.388 206.731 288.407 198.646 283.682 200.354C278.957 202.062 285.677 206.878 290.388 206.731Z" fill="#263238"/>
<path d="M298.396 207.431C298.396 207.431 297.696 200.984 302.694 200.851C307.692 200.718 305.473 206.388 298.396 207.431Z" fill="#263238"/>
<path d="M295.064 220.591C295.064 220.591 301.784 214.592 304.206 219.058C306.628 223.524 299.131 224.448 295.064 220.591Z" fill="#263238"/>
<path d="M283.164 219.527C283.164 219.527 281.904 209.573 276.472 212.695C271.04 215.817 278.439 220.5 283.164 219.527Z" fill="#263238"/>
<path d="M278.39 233.8C278.39 233.8 282.394 223.741 274.946 224.875C267.498 226.009 273.133 231.336 278.39 233.8Z" fill="#263238"/>
<path d="M289.8 237.363C289.8 237.363 296.1 229.957 300.895 232.302C305.69 234.647 301.798 242.025 289.8 237.363Z" fill="#263238"/>
<path d="M284.109 253.785C284.109 253.785 278.747 241.885 273.98 245.896C269.213 249.907 277.025 255.906 284.109 253.785Z" fill="#263238"/>
<path d="M291.9 253.092C291.9 253.092 290.5 243.859 295.792 244.601C301.084 245.343 299.705 250.992 291.9 253.092Z" fill="#263238"/>
<g opacity="0.2">
<path d="M296.163 199.899C296.163 199.899 299.089 191.009 292.439 190.799C285.789 190.589 293.118 198.947 296.163 199.899Z" fill="white"/>
<path d="M290.388 206.731C290.388 206.731 288.407 198.646 283.682 200.354C278.957 202.062 285.677 206.878 290.388 206.731Z" fill="white"/>
<path d="M298.396 207.431C298.396 207.431 297.696 200.984 302.694 200.851C307.692 200.718 305.473 206.388 298.396 207.431Z" fill="white"/>
<path d="M295.064 220.591C295.064 220.591 301.784 214.592 304.206 219.058C306.628 223.524 299.131 224.448 295.064 220.591Z" fill="white"/>
<path d="M283.164 219.527C283.164 219.527 281.904 209.573 276.472 212.695C271.04 215.817 278.439 220.5 283.164 219.527Z" fill="white"/>
<path d="M278.39 233.8C278.39 233.8 282.394 223.741 274.946 224.875C267.498 226.009 273.133 231.336 278.39 233.8Z" fill="white"/>
<path d="M289.8 237.363C289.8 237.363 296.1 229.957 300.895 232.302C305.69 234.647 301.798 242.025 289.8 237.363Z" fill="white"/>
<path d="M284.109 253.785C284.109 253.785 278.747 241.885 273.98 245.896C269.213 249.907 277.025 255.906 284.109 253.785Z" fill="white"/>
<path d="M291.9 253.092C291.9 253.092 290.5 243.859 295.792 244.601C301.084 245.343 299.705 250.992 291.9 253.092Z" fill="white"/>
</g>
<path d="M293.3 212.051H293.216C293.178 212.04 293.143 212.021 293.113 211.996C293.083 211.971 293.058 211.939 293.041 211.904C293.041 211.855 290.465 206.969 288.54 205.814C288.501 205.798 288.466 205.773 288.437 205.742C288.408 205.711 288.386 205.674 288.373 205.634C288.36 205.594 288.355 205.551 288.36 205.509C288.365 205.467 288.379 205.426 288.401 205.39C288.423 205.354 288.452 205.322 288.487 205.299C288.522 205.275 288.562 205.259 288.604 205.252C288.646 205.245 288.689 205.247 288.73 205.259C288.771 205.27 288.809 205.29 288.841 205.317C290.654 206.409 292.838 210.308 293.412 211.372C297.094 209.202 299.81 205.212 299.838 205.17C299.859 205.139 299.886 205.112 299.918 205.091C299.949 205.07 299.985 205.056 300.022 205.049C300.059 205.042 300.097 205.042 300.134 205.049C300.171 205.057 300.206 205.072 300.237 205.093C300.268 205.114 300.295 205.141 300.316 205.173C300.337 205.204 300.351 205.239 300.358 205.277C300.365 205.314 300.365 205.352 300.358 205.389C300.35 205.426 300.335 205.461 300.314 205.492C300.195 205.667 297.367 209.825 293.44 212.023C293.397 212.046 293.348 212.055 293.3 212.051Z" fill="#263238"/>
<path d="M287.189 224.399H287.133C287.093 224.393 287.054 224.377 287.02 224.354C286.986 224.331 286.958 224.301 286.937 224.266C286.937 224.21 283.731 218.876 279.65 216.475C279.584 216.437 279.536 216.374 279.516 216.301C279.497 216.227 279.507 216.149 279.545 216.083C279.584 216.017 279.648 215.968 279.723 215.949C279.798 215.929 279.877 215.94 279.944 215.978C283.661 218.169 286.552 222.551 287.273 223.678C293.006 219.478 300.16 219.695 300.23 219.688C300.268 219.689 300.306 219.697 300.341 219.713C300.376 219.729 300.407 219.751 300.434 219.779C300.46 219.808 300.48 219.84 300.493 219.876C300.506 219.912 300.512 219.951 300.51 219.989C300.509 220.027 300.501 220.064 300.486 220.098C300.47 220.133 300.448 220.164 300.421 220.19C300.394 220.216 300.362 220.236 300.326 220.25C300.291 220.263 300.254 220.27 300.216 220.269C300.146 220.269 292.971 220.094 287.364 224.329C287.314 224.37 287.253 224.395 287.189 224.399Z" fill="#263238"/>
<path d="M283.304 240.723C283.238 240.723 283.174 240.7 283.122 240.66C279.125 237.447 276.052 229.46 275.926 229.117C275.897 229.041 275.9 228.956 275.933 228.882C275.967 228.808 276.028 228.75 276.105 228.721C276.181 228.693 276.265 228.695 276.339 228.729C276.413 228.762 276.471 228.824 276.5 228.9C276.5 228.977 279.559 236.873 283.367 240.1C284.627 239.4 292.012 235.361 297.668 235.249C297.743 235.249 297.815 235.278 297.869 235.331C297.922 235.383 297.953 235.454 297.955 235.529C297.957 235.567 297.951 235.605 297.938 235.64C297.925 235.676 297.904 235.709 297.878 235.736C297.852 235.764 297.82 235.785 297.786 235.8C297.751 235.815 297.713 235.823 297.675 235.823C291.753 235.942 283.563 240.646 283.479 240.723C283.422 240.742 283.361 240.742 283.304 240.723Z" fill="#263238"/>
<path d="M288.043 257.6C287.998 257.6 287.953 257.59 287.913 257.569C287.873 257.548 287.838 257.518 287.812 257.481C285.515 254.705 282.426 252.696 278.957 251.72C278.884 251.699 278.822 251.649 278.785 251.582C278.748 251.515 278.74 251.436 278.761 251.363C278.782 251.29 278.832 251.228 278.899 251.191C278.966 251.154 279.045 251.146 279.118 251.167C282.619 252.143 285.75 254.139 288.113 256.9C291.032 254.975 294.882 247.513 294.917 247.436C294.958 247.378 295.018 247.337 295.087 247.32C295.156 247.303 295.229 247.311 295.292 247.344C295.355 247.376 295.404 247.43 295.43 247.496C295.457 247.562 295.458 247.635 295.435 247.702C295.267 248.031 291.277 255.766 288.19 257.502C288.152 257.549 288.101 257.583 288.043 257.6Z" fill="#263238"/>
<path d="M288.624 275.282C288.624 275.282 291.193 271.187 294.105 270.606C297.017 270.025 298.263 266.672 299.334 268.688C300.405 270.704 297.451 277.375 288.624 275.282Z" fill="#263238"/>
<path d="M301.98 291.368H273.875L271.992 274.029H303.856L301.98 291.368Z" fill="#F83758"/>
<path d="M304.514 277.312H271.334L270.914 273.644H304.941L304.514 277.312Z" fill="#F83758"/>
<path opacity="0.3" d="M304.514 277.312H271.334L270.914 273.644H304.941L304.514 277.312Z" fill="white"/>
<path d="M83.895 197.001C87.4956 205.15 89.6283 213.87 90.195 222.761C90.2298 223.442 90.0288 224.113 89.6258 224.663C89.2228 225.213 88.6426 225.606 87.983 225.778C87.726 225.852 87.4594 225.887 87.192 225.883H73.661V285.754H82.761C83.4903 285.763 84.1873 286.056 84.7037 286.571C85.2201 287.086 85.5151 287.783 85.526 288.512H57.799C57.81 287.777 58.1099 287.075 58.6338 286.559C59.1577 286.043 59.8636 285.754 60.599 285.754H69.699V225.883H56.14C55.8726 225.887 55.606 225.852 55.349 225.778C54.6901 225.606 54.1106 225.212 53.7088 224.662C53.307 224.113 53.1075 223.441 53.144 222.761C53.711 213.87 55.8437 205.15 59.444 197.001C61.0424 193.31 61.7935 189.308 61.6421 185.289C61.4906 181.269 60.4406 177.335 58.569 173.775C55.426 167.797 52.5 161.595 53.151 160.286C54.474 157.626 55.797 156.338 62.405 155.568C66.724 155.057 67.557 152.53 67.613 150.857C67.6254 150.442 67.5473 150.029 67.3841 149.647C67.2209 149.265 66.9766 148.923 66.668 148.645C60.599 143.122 60.27 130.445 70.511 128.842V128.667C70.854 128.667 71.211 128.667 71.498 128.702H71.827C72.156 128.702 72.485 128.667 72.821 128.667V128.842C83.069 130.473 82.733 143.122 76.671 148.645C76.3639 148.924 76.1206 149.266 75.9575 149.648C75.7945 150.03 75.7155 150.442 75.726 150.857C75.782 152.53 76.615 155.057 80.934 155.568C87.549 156.338 88.865 157.626 90.188 160.286C90.839 161.595 87.92 167.797 84.777 173.775C82.9043 177.335 81.8531 181.269 81.7004 185.288C81.5478 189.307 82.2977 193.31 83.895 197.001Z" fill="#263238"/>
<path opacity="0.4" d="M83.895 197.001C87.4956 205.15 89.6283 213.87 90.195 222.761C90.2298 223.442 90.0288 224.113 89.6258 224.663C89.2228 225.213 88.6426 225.606 87.983 225.778C87.726 225.852 87.4594 225.887 87.192 225.883H73.661V285.754H82.761C83.4903 285.763 84.1873 286.056 84.7037 286.571C85.2201 287.086 85.5151 287.783 85.526 288.512H57.799C57.81 287.777 58.1099 287.075 58.6338 286.559C59.1577 286.043 59.8636 285.754 60.599 285.754H69.699V225.883H56.14C55.8726 225.887 55.606 225.852 55.349 225.778C54.6901 225.606 54.1106 225.212 53.7088 224.662C53.307 224.113 53.1075 223.441 53.144 222.761C53.711 213.87 55.8437 205.15 59.444 197.001C61.0424 193.31 61.7935 189.308 61.6421 185.289C61.4906 181.269 60.4406 177.335 58.569 173.775C55.426 167.797 52.5 161.595 53.151 160.286C54.474 157.626 55.797 156.338 62.405 155.568C66.724 155.057 67.557 152.53 67.613 150.857C67.6254 150.442 67.5473 150.029 67.3841 149.647C67.2209 149.265 66.9766 148.923 66.668 148.645C60.599 143.122 60.27 130.445 70.511 128.842V128.667C70.854 128.667 71.211 128.667 71.498 128.702H71.827C72.156 128.702 72.485 128.667 72.821 128.667V128.842C83.069 130.473 82.733 143.122 76.671 148.645C76.3639 148.924 76.1206 149.266 75.9575 149.648C75.7945 150.03 75.7155 150.442 75.726 150.857C75.782 152.53 76.615 155.057 80.934 155.568C87.549 156.338 88.865 157.626 90.188 160.286C90.839 161.595 87.92 167.797 84.777 173.775C82.9043 177.335 81.8531 181.269 81.7004 185.288C81.5478 189.307 82.2977 193.31 83.895 197.001Z" fill="white"/>
<path d="M83.895 197.001C87.4956 205.15 89.6283 213.87 90.195 222.761C90.2298 223.442 90.0288 224.113 89.6258 224.663C89.2228 225.213 88.6426 225.606 87.983 225.778H55.349C54.6901 225.606 54.1106 225.212 53.7088 224.662C53.307 224.113 53.1075 223.441 53.144 222.761C53.711 213.87 55.8437 205.15 59.444 197.001C61.0424 193.31 61.7935 189.308 61.6421 185.289C61.4906 181.269 60.4406 177.335 58.569 173.775C55.426 167.797 52.5 161.595 53.151 160.286C54.474 157.626 55.797 156.338 62.405 155.568C66.724 155.057 67.557 152.53 67.613 150.857C67.6254 150.442 67.5473 150.029 67.3841 149.647C67.2209 149.265 66.9766 148.923 66.668 148.645C60.599 143.122 60.27 130.445 70.511 128.842V128.667C70.854 128.667 71.211 128.667 71.498 128.702H71.827C72.156 128.702 72.485 128.667 72.821 128.667V128.842C83.069 130.473 82.733 143.122 76.671 148.645C76.3639 148.924 76.1206 149.266 75.9575 149.648C75.7945 150.03 75.7155 150.442 75.726 150.857C75.782 152.53 76.615 155.057 80.934 155.568C87.549 156.338 88.865 157.626 90.188 160.286C90.839 161.595 87.92 167.797 84.777 173.775C82.9043 177.335 81.8531 181.269 81.7004 185.288C81.5478 189.307 82.2977 193.31 83.895 197.001Z" fill="#F83758"/>
<path opacity="0.7" d="M83.895 197.001C87.4956 205.15 89.6283 213.87 90.195 222.761C90.2298 223.442 90.0288 224.113 89.6258 224.663C89.2228 225.213 88.6426 225.606 87.983 225.778H55.349C54.6901 225.606 54.1106 225.212 53.7088 224.662C53.307 224.113 53.1075 223.441 53.144 222.761C53.711 213.87 55.8437 205.15 59.444 197.001C61.0424 193.31 61.7935 189.308 61.6421 185.289C61.4906 181.269 60.4406 177.335 58.569 173.775C55.426 167.797 52.5 161.595 53.151 160.286C54.474 157.626 55.797 156.338 62.405 155.568C66.724 155.057 67.557 152.53 67.613 150.857C67.6254 150.442 67.5473 150.029 67.3841 149.647C67.2209 149.265 66.9766 148.923 66.668 148.645C60.599 143.122 60.27 130.445 70.511 128.842V128.667C70.854 128.667 71.211 128.667 71.498 128.702H71.827C72.156 128.702 72.485 128.667 72.821 128.667V128.842C83.069 130.473 82.733 143.122 76.671 148.645C76.3639 148.924 76.1206 149.266 75.9575 149.648C75.7945 150.03 75.7155 150.442 75.726 150.857C75.782 152.53 76.615 155.057 80.934 155.568C87.549 156.338 88.865 157.626 90.188 160.286C90.839 161.595 87.92 167.797 84.777 173.775C82.9043 177.335 81.8531 181.269 81.7004 185.288C81.5478 189.307 82.2977 193.31 83.895 197.001Z" fill="white"/>
<path d="M230.244 46.844H198.94C197.527 46.844 196.128 47.1223 194.823 47.663C193.517 48.2037 192.331 48.9962 191.332 49.9952C190.333 50.9943 189.541 52.1804 189 53.4857C188.459 54.7911 188.181 56.1901 188.181 57.603V88.025C188.181 89.4379 188.459 90.837 189 92.1423C189.541 93.4476 190.333 94.6337 191.332 95.6328C192.331 96.6318 193.517 97.4243 194.823 97.965C196.128 98.5057 197.527 98.784 198.94 98.784H201.096L201.292 106.771L208.334 98.784H230.244C231.657 98.784 233.056 98.5057 234.361 97.965C235.667 97.4243 236.853 96.6318 237.852 95.6328C238.851 94.6337 239.643 93.4476 240.184 92.1423C240.725 90.837 241.003 89.4379 241.003 88.025V57.603C241.003 54.7495 239.87 52.0129 237.852 49.9952C235.834 47.9775 233.098 46.844 230.244 46.844Z" fill="#F83758"/>
<path opacity="0.7" d="M226.009 87.395H203.175L204.869 66.892L204.022 62.818H225.162L224.315 66.892L226.009 87.395Z" fill="white"/>
<path d="M220.857 64.169C220.675 59.969 217.938 56.658 214.592 56.658C211.246 56.658 208.502 59.99 208.327 64.169C208.258 64.2152 208.2 64.2775 208.16 64.3507C208.12 64.4238 208.098 64.5056 208.096 64.589C208.096 64.7301 208.152 64.8654 208.252 64.9652C208.352 65.065 208.487 65.121 208.628 65.121C208.769 65.121 208.904 65.065 209.004 64.9652C209.104 64.8654 209.16 64.7301 209.16 64.589C209.158 64.5115 209.139 64.4355 209.104 64.3664C209.069 64.2974 209.019 64.2371 208.957 64.19C209.125 60.347 211.582 57.288 214.592 57.288C217.602 57.288 220.059 60.347 220.192 64.19C220.133 64.2387 220.085 64.2995 220.051 64.3684C220.017 64.4372 219.998 64.5124 219.996 64.589C219.996 64.7301 220.052 64.8654 220.152 64.9652C220.252 65.065 220.387 65.121 220.528 65.121C220.669 65.121 220.804 65.065 220.904 64.9652C221.004 64.8654 221.06 64.7301 221.06 64.589C221.061 64.508 221.044 64.4278 221.009 64.3549C220.973 64.2819 220.921 64.2183 220.857 64.169Z" fill="white"/>
<path d="M233.709 75.11C233.709 76.248 233.372 77.3605 232.739 78.3068C232.107 79.253 231.208 79.9905 230.157 80.426C229.106 80.8615 227.949 80.9755 226.832 80.7534C225.716 80.5314 224.691 79.9834 223.886 79.1787C223.082 78.374 222.534 77.3487 222.312 76.2326C222.09 75.1164 222.204 73.9594 222.639 72.908C223.075 71.8566 223.812 70.958 224.758 70.3257C225.705 69.6935 226.817 69.356 227.955 69.356C229.481 69.356 230.945 69.9622 232.024 71.0413C233.103 72.1204 233.709 73.5839 233.709 75.11Z" fill="#263238"/>
<path d="M227.346 77.385C227.251 77.3848 227.161 77.347 227.094 77.28L224.434 74.62C224.37 74.5546 224.334 74.4666 224.334 74.375C224.334 74.2834 224.37 74.1954 224.434 74.13C224.467 74.0972 224.505 74.0712 224.548 74.0534C224.591 74.0356 224.636 74.0265 224.683 74.0265C224.729 74.0265 224.774 74.0356 224.817 74.0534C224.86 74.0712 224.898 74.0972 224.931 74.13L227.346 76.538L230.979 72.933C231.044 72.8689 231.132 72.833 231.224 72.833C231.316 72.833 231.404 72.8689 231.469 72.933C231.502 72.9655 231.528 73.0042 231.546 73.0469C231.563 73.0896 231.573 73.1353 231.573 73.1815C231.573 73.2277 231.563 73.2735 231.546 73.3161C231.528 73.3588 231.502 73.3975 231.469 73.43L227.591 77.28C227.526 77.3459 227.438 77.3837 227.346 77.385Z" fill="white"/>
<path d="M198.226 122.654L195.335 133.791L200.508 134.407L201.747 124.243L198.226 122.654Z" fill="#E4897B"/>
<path d="M158.557 284.536L159.383 285.236L160.482 284.417L162.162 287.973L169.092 293.86C169.092 293.86 171.136 293.692 168.588 290.003C168.462 289.824 168.357 289.631 168.273 289.429C167.216 287.105 167.076 282.191 167.076 282.191L163.275 278.957C163.01 279.035 162.75 279.13 162.498 279.244C161.371 279.727 159.159 280.875 158.557 284.536Z" fill="#F83758"/>
<path opacity="0.2" d="M158.557 284.536L159.383 285.236L160.482 284.417L162.162 287.973L169.092 293.86C169.092 293.86 171.136 293.692 168.588 290.003C168.462 289.824 168.357 289.631 168.273 289.429C167.216 287.105 167.076 282.191 167.076 282.191L163.275 278.957C163.01 279.035 162.75 279.13 162.498 279.244C161.371 279.727 159.159 280.875 158.557 284.536Z" fill="black"/>
<path d="M162.498 279.244C163.478 279.111 163.674 283.514 164.64 285.775C165.501 287.784 166.901 289.541 168.287 289.422C167.23 287.098 167.524 281.141 167.524 281.141L164.465 278.544C164.465 278.544 162.981 279.034 162.498 279.244Z" fill="#E4897B"/>
<path opacity="0.2" d="M162.498 279.244C163.478 279.111 163.674 283.514 164.64 285.775C165.501 287.784 166.901 289.541 168.287 289.422C167.23 287.098 167.524 281.141 167.524 281.141L164.465 278.544C164.465 278.544 162.981 279.034 162.498 279.244Z" fill="black"/>
<path d="M158.354 295.197H159.439L159.74 293.86L163.331 295.477H172.431C172.431 295.477 173.873 294.021 169.547 292.866C169.333 292.81 169.127 292.73 168.931 292.628C166.621 291.55 163.331 287.889 163.331 287.889H158.34C158.188 288.114 158.05 288.348 157.927 288.589C157.381 289.709 156.443 292.012 158.354 295.197Z" fill="#F83758"/>
<path d="M157.927 288.61C158.585 287.875 161.588 291.102 163.779 292.201C165.746 293.181 167.944 293.601 168.924 292.614C166.614 291.536 162.981 286.804 162.981 286.804H158.97C158.97 286.804 158.2 288.141 157.927 288.61Z" fill="#E4897B"/>
<path d="M200.641 125.3L208.194 123.536L204.442 118.461C204.442 118.461 197.512 119.924 198.226 122.661L200.641 125.3Z" fill="#E4897B"/>
<path d="M202.125 125.741C202.125 125.741 201.838 151.263 196.168 151.263C193.025 151.263 189.462 149.219 186.431 146.902C183.887 144.924 181.526 142.722 179.375 140.322V140.238L177.422 128.387C183.022 128.247 192.738 141.029 192.738 141.029L197.4 124.838L202.125 125.741Z" fill="#F83758"/>
<path opacity="0.2" d="M186.431 146.902C183.887 144.924 181.526 142.722 179.375 140.322V140.238L181.195 136.171C184.237 138.955 186.108 142.791 186.431 146.902Z" fill="black"/>
<path d="M154.504 100.1C154.504 100.1 156.275 97.034 161.35 96.516C166.425 95.998 173.152 98.7 174.181 106.449C175.21 114.198 177.408 118.447 177.408 118.447C177.408 118.447 161.063 122.717 156.471 121.177C151.879 119.637 144.774 102.305 154.504 100.1Z" fill="#263238"/>
<path d="M188.398 235.823C186.109 240.387 183.806 245.301 181.594 250.208C178.689 256.69 175.959 263.179 173.635 268.989C171.976 273.133 169.813 278.362 168.679 281.526C166.223 281.332 163.896 280.35 162.043 278.726C162.897 273.035 165.172 258.251 169.47 245.245C171.724 238.399 174.545 231.644 178.017 226.149C161.784 184.296 164.927 168.315 164.927 168.315L182.147 166.992C182.147 166.992 185.248 182.7 187.852 198.8C189.21 207.242 190.428 215.796 190.988 222.271V222.334C191.386 226.983 190.49 231.652 188.398 235.823Z" fill="#263238"/>
<path opacity="0.2" d="M173.467 213.675C171.059 206.549 169.267 200.375 168.007 195.062C168.973 190.862 170.429 187.222 172.487 185.003C172.487 185.003 175.917 196.546 173.467 213.675Z" fill="black"/>
<path opacity="0.2" d="M173.635 268.989C171.976 273.133 169.813 278.362 168.679 281.526C166.223 281.332 163.896 280.35 162.043 278.726C162.897 273.035 165.172 258.251 169.47 245.245C170.947 252.196 172.641 261.009 173.635 268.989Z" fill="black"/>
<path d="M175.203 165.298C175.203 165.298 170.184 204.155 167.307 222.852C164.283 242.487 163.898 274.001 164.654 286.839C163.555 287.476 159.544 288.239 157.381 287.574C157.381 287.574 147.14 247.856 153.937 224.791C147.749 179.354 156.737 168.224 156.737 168.224L175.203 165.298Z" fill="#263238"/>
<path opacity="0.7" d="M173.53 140.833C168.482 136.283 162.886 132.381 156.87 129.22C157.416 129.157 157.983 129.101 158.543 129.052C162.362 128.648 166.206 128.519 170.044 128.667C170.996 128.723 171.976 128.8 172.935 128.877C175.315 134.337 173.53 140.833 173.53 140.833Z" fill="white"/>
<path d="M156.87 165.298L182 163.604C182 163.604 182.749 171.143 182.574 171.038C182.399 170.933 155.701 171.976 155.701 171.976L156.87 165.298Z" fill="#263238"/>
<path d="M157.101 165.711L181.944 164.339V166.698L156.87 168.028L157.101 165.711Z" fill="black"/>
<path d="M171.08 167.692C170.901 167.692 170.73 167.624 170.599 167.502C170.469 167.38 170.391 167.212 170.38 167.034L170.268 165.634C170.259 165.54 170.27 165.446 170.298 165.356C170.327 165.267 170.374 165.184 170.435 165.113C170.496 165.042 170.572 164.983 170.656 164.942C170.74 164.9 170.832 164.876 170.926 164.871L173.649 164.654C173.747 164.646 173.846 164.658 173.939 164.691C174.032 164.724 174.117 164.775 174.188 164.843C174.261 164.909 174.32 164.99 174.36 165.081C174.4 165.171 174.42 165.269 174.419 165.368V166.824C174.419 167.01 174.345 167.188 174.214 167.319C174.083 167.45 173.905 167.524 173.719 167.524L171.108 167.664L171.08 167.692ZM173.698 165.151L170.975 165.361C170.944 165.364 170.913 165.372 170.885 165.387C170.858 165.401 170.833 165.421 170.813 165.445C170.792 165.469 170.777 165.497 170.768 165.527C170.759 165.557 170.755 165.589 170.758 165.62L170.863 167.02C170.87 167.082 170.9 167.139 170.946 167.18C170.993 167.222 171.053 167.244 171.115 167.244L173.726 167.104C173.788 167.102 173.847 167.076 173.89 167.032C173.933 166.987 173.957 166.928 173.957 166.866V165.41C173.957 165.377 173.951 165.344 173.938 165.314C173.924 165.284 173.905 165.257 173.88 165.235C173.858 165.208 173.83 165.187 173.799 165.172C173.767 165.158 173.733 165.15 173.698 165.151Z" fill="white"/>
<path d="M156.87 165.298C156.345 159.404 154.238 148.603 150.605 137.256C149.422 133.567 151.424 129.402 151.424 129.402C151.424 129.402 156.373 129.276 156.87 129.22C157.367 129.164 157.983 129.101 158.543 129.052C162.363 128.648 166.206 128.519 170.044 128.667C170.996 128.723 171.976 128.8 172.935 128.877C173.243 128.877 176.722 128.94 177.023 128.975C177.023 128.975 181.839 134.477 182.133 138.936C182.486 142.368 182.617 145.819 182.525 149.268C182.525 153.314 181.937 164.339 181.937 164.339C181.167 168.602 172.48 164.703 172.48 164.703C159.943 170.912 156.87 165.298 156.87 165.298Z" fill="#F83758"/>
<path opacity="0.8" d="M156.87 165.298C156.345 159.404 154.238 148.603 150.605 137.256C149.422 133.567 151.424 129.402 151.424 129.402C151.424 129.402 156.373 129.276 156.87 129.22C157.367 129.164 157.983 129.101 158.543 129.052C162.363 128.648 166.206 128.519 170.044 128.667C170.996 128.723 171.976 128.8 172.935 128.877C173.243 128.877 176.722 128.94 177.023 128.975C177.023 128.975 181.839 134.477 182.133 138.936C182.486 142.368 182.617 145.819 182.525 149.268C182.525 153.314 181.937 164.339 181.937 164.339C181.167 168.602 172.48 164.703 172.48 164.703C159.943 170.912 156.87 165.298 156.87 165.298Z" fill="white"/>
<path opacity="0.2" d="M170.926 139.825C170.926 139.903 170.903 139.978 170.86 140.043C170.817 140.107 170.756 140.157 170.684 140.187C170.612 140.217 170.534 140.225 170.458 140.209C170.382 140.194 170.312 140.157 170.257 140.102C170.202 140.047 170.165 139.978 170.15 139.901C170.134 139.825 170.142 139.747 170.172 139.675C170.202 139.603 170.252 139.542 170.316 139.499C170.381 139.456 170.457 139.433 170.534 139.433C170.638 139.433 170.738 139.474 170.811 139.548C170.885 139.621 170.926 139.721 170.926 139.825Z" fill="black"/>
<path opacity="0.2" d="M172.354 148.106C172.354 148.184 172.331 148.259 172.288 148.324C172.245 148.388 172.184 148.438 172.112 148.468C172.04 148.498 171.962 148.506 171.886 148.49C171.81 148.475 171.74 148.438 171.685 148.383C171.63 148.328 171.593 148.259 171.578 148.182C171.562 148.106 171.57 148.028 171.6 147.956C171.63 147.884 171.68 147.823 171.744 147.78C171.809 147.737 171.885 147.714 171.962 147.714C172.066 147.714 172.166 147.755 172.239 147.829C172.313 147.902 172.354 148.002 172.354 148.106Z" fill="black"/>
<path opacity="0.2" d="M172.354 156.394C172.571 156.394 172.746 156.218 172.746 156.002C172.746 155.786 172.571 155.61 172.354 155.61C172.138 155.61 171.962 155.786 171.962 156.002C171.962 156.218 172.138 156.394 172.354 156.394Z" fill="black"/>
<path opacity="0.2" d="M172.746 163.996C172.962 163.996 173.138 163.82 173.138 163.604C173.138 163.388 172.962 163.212 172.746 163.212C172.53 163.212 172.354 163.388 172.354 163.604C172.354 163.82 172.53 163.996 172.746 163.996Z" fill="black"/>
<path d="M158.9 182.546L150.22 180.978L155.274 162.309C155.274 162.309 154 157.675 152.6 152.362C151.9 149.772 151.2 147.028 150.577 144.585C149.886 142.158 149.339 139.692 148.939 137.2C148.778 134.225 151.431 129.409 151.431 129.409L155.288 128.779C155.288 128.779 163.408 134.701 163.779 146.783C164.15 158.865 158.9 182.546 158.9 182.546Z" fill="#F83758"/>
<path d="M174.888 128.387C174.888 128.387 177.443 137.9 178.696 144.9C179.949 151.9 183.4 181.706 183.4 181.706L185.283 180.768L182.7 162.981C182.7 162.981 183.645 142.366 182.91 138.131C182.175 133.896 177.436 128.387 177.436 128.387H174.888Z" fill="#F83758"/>
<path d="M171.535 130.291C172.746 134.708 170.135 138.621 170.135 138.621C162.386 136.171 159.18 129.031 159.18 129.031C161.497 126.483 160.034 119.742 158.907 116.074L162.008 118.398L166.628 121.849C166.541 122.8 166.617 123.759 166.852 124.684C167.202 126.154 167.825 127.533 168.518 127.827L171.535 130.291Z" fill="#E4897B"/>
<path opacity="0.2" d="M166.852 124.684C165.011 124.271 162.596 122.367 162.211 120.484C162.062 119.794 161.994 119.089 162.008 118.384L166.628 121.835C166.539 122.79 166.615 123.754 166.852 124.684Z" fill="black"/>
<path d="M155.498 108.752C156.821 114.688 157.255 117.229 160.769 119.952C166.047 124.089 173.012 121.569 173.481 115.451C173.901 109.949 171.661 101.164 165.431 99.4C164.105 98.9733 162.688 98.91 161.329 99.2168C159.97 99.5235 158.718 100.189 157.704 101.144C156.69 102.099 155.95 103.309 155.562 104.647C155.174 105.985 155.152 107.402 155.498 108.752Z" fill="#E4897B"/>
<path d="M163.163 109.487C163.254 109.991 163.59 110.369 163.912 110.334C164.234 110.299 164.423 109.865 164.332 109.361C164.241 108.857 163.905 108.479 163.583 108.514C163.261 108.549 163.1 108.983 163.163 109.487Z" fill="#263238"/>
<path d="M169.4 108.612C169.491 109.116 169.827 109.494 170.149 109.466C170.471 109.438 170.66 108.99 170.576 108.486C170.492 107.982 170.149 107.604 169.827 107.639C169.505 107.674 169.344 108.108 169.4 108.612Z" fill="#263238"/>
<path d="M169.715 107.681L170.842 107.205C170.842 107.205 170.401 108.22 169.715 107.681Z" fill="#263238"/>
<path d="M167.706 109.9C168.352 111.004 169.138 112.021 170.044 112.924C169.818 113.134 169.548 113.29 169.254 113.381C168.959 113.472 168.648 113.495 168.343 113.449L167.706 109.9Z" fill="#DE5753"/>
<path d="M161.7 106.435C161.739 106.435 161.778 106.426 161.813 106.409C161.848 106.392 161.879 106.368 161.903 106.337C162.129 106.054 162.423 105.833 162.757 105.692C163.09 105.552 163.454 105.497 163.814 105.532C163.851 105.538 163.89 105.536 163.926 105.527C163.963 105.518 163.997 105.501 164.027 105.478C164.057 105.455 164.083 105.427 164.101 105.394C164.12 105.361 164.132 105.325 164.136 105.287C164.141 105.206 164.115 105.127 164.065 105.063C164.015 105 163.943 104.958 163.863 104.944C163.408 104.894 162.949 104.959 162.525 105.133C162.102 105.306 161.73 105.583 161.441 105.938C161.394 106.001 161.373 106.08 161.382 106.158C161.391 106.236 161.43 106.307 161.49 106.358C161.55 106.406 161.623 106.433 161.7 106.435Z" fill="#263238"/>
<path d="M171.416 105C171.491 105.01 171.566 104.989 171.626 104.944C171.654 104.917 171.676 104.884 171.691 104.848C171.707 104.812 171.714 104.773 171.714 104.734C171.714 104.695 171.707 104.656 171.691 104.62C171.676 104.584 171.654 104.551 171.626 104.524C171.333 104.144 170.957 103.837 170.526 103.627C170.095 103.417 169.621 103.309 169.141 103.313C169.103 103.315 169.066 103.326 169.033 103.343C168.999 103.361 168.969 103.385 168.946 103.415C168.922 103.445 168.905 103.479 168.895 103.515C168.885 103.552 168.883 103.59 168.889 103.628C168.901 103.707 168.942 103.779 169.004 103.829C169.066 103.88 169.145 103.905 169.225 103.901C169.605 103.908 169.978 104 170.318 104.171C170.657 104.342 170.954 104.587 171.185 104.888C171.213 104.923 171.248 104.95 171.288 104.97C171.328 104.989 171.372 105 171.416 105Z" fill="#263238"/>
<path d="M163.45 108.556L164.57 108.08C164.57 108.08 164.129 109.088 163.45 108.556Z" fill="#263238"/>
<path d="M158.543 112.189C158.543 112.189 161.462 107.94 159.243 101.647C159.243 101.647 165.844 98.441 170.849 103.327C170.849 103.327 166.194 95.172 156.478 99.078C146.762 102.984 154.091 112.315 155.295 113.078C156.499 113.841 158.543 112.189 158.543 112.189Z" fill="#263238"/>
<path d="M154.308 113.883C155.089 114.916 156.246 115.598 157.528 115.78C159.166 115.976 159.628 114.317 158.928 112.791C158.228 111.391 156.583 109.669 155.078 110.18C153.573 110.691 153.3 112.581 154.308 113.883Z" fill="#E4897B"/>
<path d="M168.7 114.856C168.38 115.62 168.116 116.406 167.909 117.208C167.762 117.208 167.615 117.208 167.475 117.166C165.501 116.97 164.675 116.221 164.311 115.458C164.154 115.082 164.086 114.675 164.115 114.268C164.124 114.03 164.166 113.794 164.241 113.568C165.228 114.303 167.041 114.632 168.028 114.765C168.427 114.842 168.7 114.856 168.7 114.856Z" fill="#263238"/>
<path d="M168 114.8L167.748 115.5C165.893 115.304 164.612 114.919 164.087 114.303C164.096 114.065 164.138 113.829 164.213 113.603C165.2 114.317 167.034 114.646 168 114.8Z" fill="white"/>
<path d="M167.461 117.166C165.487 116.97 164.661 116.221 164.297 115.458C165.044 115.549 165.77 115.771 166.439 116.116C166.881 116.351 167.238 116.718 167.461 117.166Z" fill="#DE5753"/>
<path opacity="0.2" d="M153.713 150.92C153.497 151.512 153.094 152.018 152.565 152.362C151.865 149.772 151.165 147.028 150.542 144.585C152.145 142.646 153.496 141.029 153.496 141.029C153.496 141.029 155.344 146.769 153.713 150.92Z" fill="black"/>
<path d="M151.424 129.402C147.994 129.815 137.48 155.932 138.124 160.055C138.768 164.178 161.371 162.309 161.371 162.309V156.009L148.169 153.349L152.74 144.389C153.549 141.786 153.886 139.06 153.734 136.339C153.443 133.894 152.657 131.534 151.424 129.402Z" fill="#F83758"/>
<path d="M148.071 171.969C148.034 171.978 147.996 171.978 147.959 171.969C147.903 171.938 147.861 171.886 147.843 171.825C147.824 171.763 147.831 171.697 147.861 171.64C147.924 171.514 154.462 158.97 151.984 155.022C151.699 154.607 151.303 154.28 150.842 154.078C150.38 153.877 149.871 153.808 149.373 153.881C140.35 154.196 136.073 167.279 136.031 167.412C136.005 167.465 135.961 167.507 135.907 167.53C135.853 167.553 135.793 167.556 135.737 167.538C135.68 167.52 135.633 167.483 135.602 167.433C135.571 167.383 135.56 167.323 135.569 167.265C135.611 167.125 139.986 153.72 149.352 153.391C149.939 153.318 150.534 153.41 151.071 153.658C151.607 153.905 152.064 154.298 152.39 154.791C155.022 158.991 148.568 171.367 148.288 171.892C148.261 171.922 148.227 171.945 148.189 171.958C148.152 171.972 148.111 171.976 148.071 171.969Z" fill="#F83758"/>
<g opacity="0.6">
<path d="M148.071 171.969C148.034 171.978 147.996 171.978 147.959 171.969C147.903 171.938 147.861 171.886 147.843 171.825C147.824 171.763 147.831 171.697 147.861 171.64C147.924 171.514 154.462 158.97 151.984 155.022C151.699 154.607 151.303 154.28 150.842 154.078C150.38 153.877 149.871 153.808 149.373 153.881C140.35 154.196 136.073 167.279 136.031 167.412C136.005 167.465 135.961 167.507 135.907 167.53C135.853 167.553 135.793 167.556 135.737 167.538C135.68 167.52 135.633 167.483 135.602 167.433C135.571 167.383 135.56 167.323 135.569 167.265C135.611 167.125 139.986 153.72 149.352 153.391C149.939 153.318 150.534 153.41 151.071 153.658C151.607 153.905 152.064 154.298 152.39 154.791C155.022 158.991 148.568 171.367 148.288 171.892C148.261 171.922 148.227 171.945 148.189 171.958C148.152 171.972 148.111 171.976 148.071 171.969Z" fill="white"/>
</g>
<path d="M132.083 164.465L117.915 194.075L120.099 202.979L144.949 211.47L156.73 175.889L153.475 172.578L153.167 170.639L132.083 164.465Z" fill="#263238"/>
<path opacity="0.2" d="M132.083 164.465L117.915 194.075L120.099 202.979L144.949 211.47L156.73 175.889L135.576 170.835L135.779 168.287L132.083 164.465Z" fill="white"/>
<path opacity="0.1" d="M135.576 170.828L135.779 168.287L132.09 164.465L153.16 170.639L153.475 172.578L156.73 175.889L135.576 170.828Z" fill="white"/>
<path opacity="0.2" d="M135.576 170.835L120.099 202.979L144.949 211.47L156.73 175.889L135.576 170.835Z" fill="white"/>
<path opacity="0.1" d="M135.779 168.287L121.562 194.6L117.915 194.075L120.099 202.979L121.961 195.111L135.779 168.287Z" fill="white"/>
<path d="M149.8 153.258C149.203 152.947 148.538 152.791 147.865 152.804C147.192 152.818 146.534 153 145.95 153.335C140.7 156.317 138.908 170.933 138.698 172.809C138.589 172.852 138.499 172.932 138.444 173.035C138.388 173.137 138.37 173.256 138.394 173.371C138.417 173.485 138.48 173.588 138.572 173.66C138.663 173.733 138.777 173.771 138.894 173.768C139.026 173.768 139.152 173.716 139.245 173.622C139.339 173.529 139.391 173.403 139.391 173.271C139.389 173.193 139.37 173.116 139.333 173.047C139.297 172.977 139.245 172.918 139.181 172.872C139.377 171.15 141.204 156.59 146.181 153.762C146.697 153.462 147.281 153.298 147.877 153.287C148.474 153.276 149.064 153.418 149.59 153.699C156.982 157.129 151.767 173.355 150.822 176.099C150.725 176.106 150.633 176.141 150.555 176.2C150.478 176.259 150.42 176.339 150.388 176.43C150.356 176.522 150.351 176.621 150.375 176.715C150.398 176.809 150.449 176.895 150.52 176.96C150.592 177.026 150.681 177.069 150.777 177.085C150.872 177.101 150.971 177.088 151.059 177.049C151.148 177.009 151.223 176.945 151.275 176.863C151.328 176.781 151.355 176.686 151.354 176.589C151.353 176.493 151.321 176.4 151.263 176.323C152.25 173.6 157.731 156.933 149.8 153.258Z" fill="#F83758"/>
<path opacity="0.7" d="M149.8 153.258C149.203 152.947 148.538 152.791 147.865 152.804C147.192 152.818 146.534 153 145.95 153.335C140.7 156.317 138.908 170.933 138.698 172.809C138.589 172.852 138.499 172.932 138.444 173.035C138.388 173.137 138.37 173.256 138.394 173.371C138.417 173.485 138.48 173.588 138.572 173.66C138.663 173.733 138.777 173.771 138.894 173.768C139.026 173.768 139.152 173.716 139.245 173.622C139.339 173.529 139.391 173.403 139.391 173.271C139.389 173.193 139.37 173.116 139.333 173.047C139.297 172.977 139.245 172.918 139.181 172.872C139.377 171.15 141.204 156.59 146.181 153.762C146.697 153.462 147.281 153.298 147.877 153.287C148.474 153.276 149.064 153.418 149.59 153.699C156.982 157.129 151.767 173.355 150.822 176.099C150.725 176.106 150.633 176.141 150.555 176.2C150.478 176.259 150.42 176.339 150.388 176.43C150.356 176.522 150.351 176.621 150.375 176.715C150.398 176.809 150.449 176.895 150.52 176.96C150.592 177.026 150.681 177.069 150.777 177.085C150.872 177.101 150.971 177.088 151.059 177.049C151.148 177.009 151.223 176.945 151.275 176.863C151.328 176.781 151.355 176.686 151.354 176.589C151.353 176.493 151.321 176.4 151.263 176.323C152.25 173.6 157.731 156.933 149.8 153.258Z" fill="white"/>
<path d="M154.98 171.073H154.945C154.883 171.064 154.827 171.031 154.789 170.982C154.751 170.932 154.734 170.869 154.742 170.807C154.742 170.674 156.513 157.136 152.782 154.063C152.363 153.739 151.863 153.535 151.337 153.472C150.811 153.409 150.277 153.49 149.793 153.706C141.26 156.611 142.177 170.009 142.184 170.142C142.188 170.173 142.185 170.205 142.176 170.235C142.167 170.265 142.152 170.292 142.132 170.316C142.111 170.34 142.086 170.359 142.058 170.373C142.029 170.386 141.998 170.393 141.967 170.394C141.905 170.398 141.844 170.377 141.797 170.337C141.75 170.296 141.72 170.239 141.715 170.177C141.715 170.037 140.756 156.282 149.639 153.258C150.2 153.016 150.816 152.93 151.421 153.007C152.027 153.085 152.601 153.324 153.083 153.699C157.017 156.933 155.288 170.303 155.183 170.87C155.177 170.922 155.154 170.97 155.117 171.007C155.08 171.044 155.032 171.067 154.98 171.073Z" fill="#263238"/>
<path d="M137.571 168.511L128.289 205.303L132.958 213.192L159.201 214.13L164.465 172.326L160.391 170.093L159.537 168.329L137.571 168.511Z" fill="#F83758"/>
<path opacity="0.5" d="M137.571 168.511L128.289 205.303L132.958 213.192L159.201 214.13L164.465 172.326L142.758 173.6L142.212 171.101L137.571 168.511Z" fill="white"/>
<path opacity="0.3" d="M142.751 173.6L142.212 171.101L137.571 168.511L159.53 168.322L160.391 170.093L164.465 172.326L142.751 173.6Z" fill="white"/>
<path opacity="0.2" d="M142.758 173.6L132.958 213.192L159.201 214.13L164.465 172.326L142.758 173.6Z" fill="white"/>
<path d="M146.601 174.958C146.546 174.959 146.493 174.94 146.451 174.906C146.409 174.871 146.38 174.823 146.37 174.769C146.244 174.125 143.395 159.005 147.679 154.504C148.15 154.007 148.739 153.636 149.391 153.426C150.043 153.215 150.737 153.172 151.41 153.3C160.622 154.609 159.411 173.873 159.355 174.692C159.353 174.723 159.345 174.753 159.332 174.781C159.318 174.809 159.299 174.834 159.275 174.854C159.252 174.874 159.224 174.89 159.195 174.899C159.165 174.908 159.134 174.912 159.103 174.909C159.072 174.908 159.041 174.901 159.013 174.888C158.984 174.874 158.959 174.855 158.939 174.831C158.918 174.807 158.903 174.78 158.894 174.75C158.885 174.72 158.882 174.688 158.886 174.657C158.886 174.461 160.125 155.015 151.34 153.769C150.743 153.65 150.125 153.684 149.545 153.869C148.964 154.054 148.44 154.383 148.022 154.826C143.899 159.159 146.804 174.524 146.832 174.678C146.843 174.74 146.829 174.804 146.794 174.856C146.758 174.908 146.704 174.945 146.643 174.958H146.601Z" fill="#263238"/>
<path opacity="0.1" d="M142.212 171.101L131.936 204.743L128.289 205.303L132.958 213.192L132.468 205.121L142.212 171.101Z" fill="white"/>
<path d="M147.119 174.825C147.138 174.887 147.145 174.952 147.139 175.017C147.133 175.082 147.114 175.145 147.084 175.202C147.053 175.259 147.011 175.31 146.961 175.351C146.91 175.392 146.852 175.423 146.79 175.441C146.696 175.47 146.595 175.471 146.501 175.443C146.406 175.415 146.322 175.359 146.26 175.283C146.197 175.207 146.158 175.114 146.148 175.016C146.138 174.918 146.158 174.819 146.204 174.732C146.251 174.645 146.322 174.574 146.409 174.528C146.496 174.481 146.595 174.462 146.693 174.472C146.791 174.482 146.884 174.521 146.96 174.584C147.036 174.646 147.091 174.731 147.119 174.825Z" fill="#263238"/>
<path d="M159.544 174.545C159.573 174.639 159.574 174.74 159.546 174.834C159.518 174.929 159.462 175.013 159.386 175.076C159.31 175.138 159.217 175.177 159.119 175.187C159.021 175.197 158.922 175.177 158.835 175.131C158.748 175.084 158.677 175.013 158.631 174.926C158.584 174.839 158.565 174.74 158.575 174.642C158.585 174.544 158.624 174.451 158.687 174.375C158.749 174.3 158.834 174.244 158.928 174.216C158.99 174.197 159.055 174.19 159.12 174.196C159.185 174.202 159.248 174.221 159.305 174.252C159.362 174.282 159.413 174.324 159.454 174.374C159.495 174.425 159.526 174.483 159.544 174.545Z" fill="#263238"/>
<path d="M196.336 137.417C196.279 137.417 196.224 137.397 196.182 137.36C196.139 137.322 196.112 137.27 196.105 137.214C196.105 137.074 194.068 122.899 202.356 118.538C202.848 118.22 203.418 118.044 204.003 118.03C204.589 118.015 205.167 118.162 205.674 118.454C209.874 121.093 209.566 135.254 209.545 135.835C209.543 135.897 209.517 135.956 209.473 135.999C209.428 136.042 209.369 136.066 209.307 136.066C209.275 136.066 209.244 136.06 209.215 136.047C209.186 136.035 209.16 136.016 209.139 135.993C209.117 135.971 209.1 135.943 209.089 135.914C209.079 135.884 209.074 135.852 209.076 135.821C209.076 135.681 209.426 121.352 205.422 118.86C204.986 118.61 204.489 118.486 203.987 118.504C203.485 118.521 202.998 118.678 202.58 118.958C194.586 123.158 196.553 137.004 196.574 137.158C196.579 137.189 196.578 137.22 196.57 137.251C196.562 137.281 196.549 137.31 196.53 137.334C196.511 137.359 196.487 137.38 196.459 137.396C196.432 137.411 196.402 137.421 196.371 137.424L196.336 137.417Z" fill="#263238"/>
<path d="M191.758 136.227L188.293 174.013L194.124 181.083L220.199 177.947L218.918 135.828L214.55 134.253L213.423 132.643L191.758 136.227Z" fill="#263238"/>
<path opacity="0.5" d="M191.758 136.227L188.293 174.013L194.124 181.083L220.199 177.947L218.918 135.828L197.666 140.455L196.742 138.068L191.758 136.227Z" fill="white"/>
<path opacity="0.3" d="M197.666 140.455L196.742 138.068L191.758 136.227L213.423 132.643L214.55 134.253L218.918 135.828L197.666 140.455Z" fill="white"/>
<path opacity="0.2" d="M197.666 140.455L194.124 181.083L220.199 177.947L218.918 135.828L197.666 140.455Z" fill="white"/>
<path d="M201.642 141.204C201.593 141.205 201.545 141.191 201.505 141.163C201.465 141.136 201.434 141.096 201.418 141.05C201.208 140.483 196.406 127.05 199.808 121.107C200.188 120.414 200.721 119.817 201.366 119.361C202.011 118.905 202.752 118.602 203.532 118.475C204.267 118.331 205.024 118.352 205.75 118.534C206.476 118.717 207.153 119.058 207.732 119.532C213.199 123.795 214.179 138.348 214.214 138.964C214.216 139.026 214.195 139.086 214.155 139.132C214.115 139.179 214.058 139.209 213.997 139.216C213.966 139.218 213.934 139.214 213.905 139.203C213.875 139.193 213.848 139.177 213.825 139.156C213.801 139.136 213.782 139.11 213.768 139.082C213.755 139.054 213.747 139.023 213.745 138.992C213.745 138.845 212.744 124.033 207.445 119.903C206.914 119.469 206.293 119.157 205.628 118.991C204.962 118.824 204.268 118.805 203.595 118.937C202.884 119.053 202.209 119.33 201.621 119.746C201.032 120.162 200.547 120.706 200.2 121.338C196.903 127.092 201.789 140.749 201.838 140.889C201.849 140.918 201.854 140.949 201.853 140.98C201.852 141.011 201.845 141.041 201.832 141.069C201.819 141.097 201.8 141.122 201.777 141.143C201.754 141.164 201.727 141.18 201.698 141.19L201.642 141.204Z" fill="#263238"/>
<path opacity="0.1" d="M196.742 138.068L191.807 172.9L188.293 174.013L194.124 181.083L192.388 173.187L196.742 138.068Z" fill="white"/>
<path d="M202.167 140.987C202.208 141.074 202.223 141.172 202.209 141.268C202.195 141.363 202.153 141.453 202.088 141.524C202.023 141.596 201.939 141.647 201.845 141.671C201.752 141.695 201.653 141.691 201.562 141.659C201.471 141.627 201.391 141.568 201.333 141.491C201.274 141.414 201.24 141.321 201.235 141.225C201.229 141.128 201.252 141.032 201.301 140.949C201.35 140.866 201.422 140.798 201.509 140.756C201.567 140.728 201.631 140.711 201.695 140.707C201.76 140.703 201.825 140.713 201.886 140.734C201.948 140.755 202.004 140.789 202.052 140.832C202.1 140.876 202.139 140.928 202.167 140.987Z" fill="#263238"/>
<path d="M214.403 138.782C214.442 138.87 214.455 138.967 214.439 139.062C214.424 139.157 214.381 139.246 214.317 139.317C214.252 139.388 214.168 139.439 214.075 139.464C213.982 139.488 213.884 139.485 213.793 139.455C213.701 139.425 213.621 139.369 213.561 139.294C213.501 139.219 213.463 139.128 213.454 139.032C213.444 138.937 213.463 138.84 213.507 138.755C213.551 138.669 213.619 138.598 213.703 138.551C213.763 138.517 213.83 138.495 213.899 138.489C213.969 138.482 214.038 138.489 214.104 138.511C214.17 138.533 214.231 138.568 214.282 138.615C214.334 138.662 214.375 138.718 214.403 138.782Z" fill="#263238"/>
<path d="M172.9 151.9L173.047 150.689L173.152 150.577C173.698 149.877 173.593 148.666 173.446 147.721C173.299 146.776 172.802 145.502 171.906 145.159C172.037 144.904 172.07 144.61 171.997 144.333C171.942 144.149 171.841 143.983 171.703 143.85C172.354 143.15 172.326 141.862 172.102 140.931C171.878 140 171.5 138.831 170.702 138.404C170.654 138.38 170.605 138.359 170.555 138.341L169.96 137.291L169.204 137.445L169.148 138.32C167.818 138.733 166.474 139.783 166.817 141.477C166.814 141.5 166.814 141.524 166.817 141.547C167.188 143.192 169.015 144.074 170.681 144.214C170.885 144.26 171.098 144.24 171.29 144.158C171.389 144.239 171.46 144.349 171.493 144.473C171.534 144.668 171.496 144.872 171.388 145.04C171.204 145.069 171.027 145.135 170.87 145.236C169.4 146.006 168.07 147.518 168.35 149.184C168.35 149.184 168.35 149.233 168.35 149.254C168.693 150.948 170.275 151.403 171.717 151.263L172.116 152.061L172.9 151.9ZM170.716 143.724C169.316 143.598 167.615 142.835 167.3 141.428C166.985 140.021 168.182 139.083 169.4 138.733C169.569 138.675 169.749 138.652 169.927 138.666C170.105 138.681 170.279 138.732 170.436 138.817C171.059 139.181 171.381 140.217 171.584 141.036L171.626 141.211C171.759 141.911 171.822 143.017 171.29 143.528C171.059 143.752 171.059 143.752 170.695 143.724H170.716ZM171.836 150.759C171.22 150.843 169.155 150.934 168.84 149.093C168.595 147.693 169.841 146.293 171.122 145.649C171.43 145.495 171.43 145.495 171.731 145.649C172.431 145.915 172.795 146.965 172.935 147.658C172.935 147.714 172.935 147.777 172.935 147.826C173.068 148.687 173.173 149.744 172.732 150.325C172.617 150.456 172.476 150.563 172.319 150.637C172.161 150.712 171.989 150.753 171.815 150.759H171.836Z" fill="#263238"/>
<path d="M171.85 151.004C170.45 151.186 168.875 150.773 168.581 149.135C168.287 147.497 169.61 146.16 170.975 145.446C171.374 145.236 171.388 145.222 171.801 145.383C172.641 145.712 173.061 146.979 173.201 147.756C173.418 149.261 173.439 150.801 171.85 151.004Z" fill="#F83758"/>
<path d="M169.337 138.502C167.937 138.887 166.684 139.902 167.048 141.484C167.412 143.066 169.148 143.836 170.674 143.962C171.122 144.004 171.143 144.011 171.458 143.703C172.109 143.073 172.011 141.743 171.822 140.98C171.458 139.496 170.877 138.068 169.337 138.502Z" fill="#F83758"/>
<path d="M172.256 151.319C171.262 147.329 170.023 142.919 169.68 142.541C169.111 142.307 168.52 142.129 167.916 142.009L168.014 141.547C168.675 141.676 169.32 141.875 169.939 142.142C170.464 142.443 171.899 147.952 172.739 151.207L172.256 151.319Z" fill="#263238"/>
<path opacity="0.4" d="M171.85 151.004C170.45 151.186 168.875 150.773 168.581 149.135C168.287 147.497 169.61 146.16 170.975 145.446C171.374 145.236 171.388 145.222 171.801 145.383C172.641 145.712 173.061 146.979 173.201 147.756C173.418 149.261 173.439 150.801 171.85 151.004Z" fill="white"/>
<path opacity="0.4" d="M169.337 138.502C167.937 138.887 166.684 139.902 167.048 141.484C167.412 143.066 169.148 143.836 170.674 143.962C171.122 144.004 171.143 144.011 171.458 143.703C172.109 143.073 172.011 141.743 171.822 140.98C171.458 139.496 170.877 138.068 169.337 138.502Z" fill="white"/>
<path d="M201.6 138.264C201.552 138.263 201.505 138.248 201.465 138.221C201.425 138.194 201.394 138.155 201.376 138.11C201.103 137.466 194.761 122.143 203.364 118.258C203.871 118.015 204.428 117.895 204.989 117.907C205.551 117.92 206.102 118.064 206.598 118.328C211.498 120.806 214.165 133.504 214.298 134.043C214.305 134.074 214.306 134.106 214.301 134.137C214.296 134.168 214.284 134.198 214.267 134.225C214.25 134.251 214.228 134.275 214.202 134.293C214.176 134.311 214.147 134.323 214.116 134.33C214.053 134.345 213.987 134.334 213.931 134.3C213.876 134.266 213.837 134.211 213.822 134.148C213.822 134.015 211.064 121.135 206.395 118.748C205.966 118.517 205.489 118.392 205.002 118.382C204.515 118.373 204.033 118.479 203.595 118.692C195.426 122.381 201.796 137.753 201.859 137.907C201.873 137.936 201.881 137.968 201.882 138C201.883 138.033 201.877 138.065 201.865 138.095C201.854 138.125 201.836 138.153 201.813 138.176C201.79 138.199 201.763 138.217 201.733 138.229C201.693 138.253 201.647 138.265 201.6 138.264Z" fill="#263238"/>
<g opacity="0.7">
<path d="M201.6 138.264C201.552 138.263 201.505 138.248 201.465 138.221C201.425 138.194 201.394 138.155 201.376 138.11C201.103 137.466 194.761 122.143 203.364 118.258C203.871 118.015 204.428 117.895 204.989 117.907C205.551 117.92 206.102 118.064 206.598 118.328C211.498 120.806 214.165 133.504 214.298 134.043C214.305 134.074 214.306 134.106 214.301 134.137C214.296 134.168 214.284 134.198 214.267 134.225C214.25 134.251 214.228 134.275 214.202 134.293C214.176 134.311 214.147 134.323 214.116 134.33C214.053 134.345 213.987 134.334 213.931 134.3C213.876 134.266 213.837 134.211 213.822 134.148C213.822 134.015 211.064 121.135 206.395 118.748C205.966 118.517 205.489 118.392 205.002 118.382C204.515 118.373 204.033 118.479 203.595 118.692C195.426 122.381 201.796 137.753 201.859 137.907C201.873 137.936 201.881 137.968 201.882 138C201.883 138.033 201.877 138.065 201.865 138.095C201.854 138.125 201.836 138.153 201.813 138.176C201.79 138.199 201.763 138.217 201.733 138.229C201.693 138.253 201.647 138.265 201.6 138.264Z" fill="white"/>
</g>
<path d="M196.938 138.005L203.609 170.156L210.742 175.917L235.655 167.608L223.468 132.167L218.869 131.502L217.448 130.144L196.938 138.005Z" fill="#F83758"/>
<path opacity="0.2" d="M196.938 138.005L203.609 170.156L210.742 175.917L235.655 167.608L223.468 132.167L203.574 140.959L202.188 138.81L196.938 138.005Z" fill="white"/>
<path opacity="0.1" d="M203.567 140.959L202.188 138.81L196.938 138.005L217.441 130.144L218.869 131.502L223.461 132.167L203.567 140.959Z" fill="white"/>
<path opacity="0.2" d="M203.574 140.959L210.742 175.917L235.655 167.608L223.468 132.167L203.574 140.959Z" fill="white"/>
<path opacity="0.1" d="M202.188 138.81L206.829 168.357L203.609 170.156L210.742 175.917L207.459 168.525L202.188 138.81Z" fill="white"/>
<path d="M219.632 135.968C219.57 135.896 219.49 135.841 219.401 135.807C218.491 133.007 212.583 116.088 204.057 117.971C203.4 118.083 202.781 118.36 202.259 118.775C201.736 119.189 201.327 119.729 201.068 120.344C198.674 125.944 206.283 138.992 207.263 140.644C207.217 140.729 207.196 140.826 207.203 140.923C207.211 141.02 207.246 141.113 207.305 141.19C207.344 141.243 207.394 141.287 207.451 141.321C207.507 141.354 207.57 141.376 207.636 141.384C207.701 141.393 207.767 141.388 207.831 141.37C207.894 141.353 207.954 141.322 208.005 141.281C208.058 141.242 208.102 141.192 208.136 141.136C208.169 141.079 208.191 141.017 208.2 140.951C208.209 140.886 208.205 140.82 208.189 140.756C208.172 140.693 208.143 140.633 208.103 140.581C208.056 140.519 207.994 140.47 207.923 140.437C207.853 140.404 207.775 140.388 207.697 140.392C206.801 138.88 199.248 125.86 201.523 120.533C201.751 119.988 202.113 119.51 202.576 119.143C203.039 118.775 203.587 118.531 204.169 118.433C212.128 116.683 217.98 133.077 218.925 135.933C218.83 136.013 218.77 136.127 218.755 136.25C218.741 136.374 218.774 136.498 218.848 136.598C218.93 136.701 219.048 136.769 219.178 136.788C219.309 136.806 219.441 136.773 219.548 136.696C219.603 136.655 219.649 136.603 219.683 136.544C219.717 136.484 219.739 136.418 219.747 136.35C219.755 136.282 219.749 136.213 219.729 136.147C219.709 136.081 219.676 136.021 219.632 135.968Z" fill="#263238"/>
<path opacity="0.8" d="M219.632 135.968C219.57 135.896 219.49 135.841 219.401 135.807C218.491 133.007 212.583 116.088 204.057 117.971C203.4 118.083 202.781 118.36 202.259 118.775C201.736 119.189 201.327 119.729 201.068 120.344C198.674 125.944 206.283 138.992 207.263 140.644C207.217 140.729 207.196 140.826 207.203 140.923C207.211 141.02 207.246 141.113 207.305 141.19C207.344 141.243 207.394 141.287 207.451 141.321C207.507 141.354 207.57 141.376 207.636 141.384C207.701 141.393 207.767 141.388 207.831 141.37C207.894 141.353 207.954 141.322 208.005 141.281C208.058 141.242 208.102 141.192 208.136 141.136C208.169 141.079 208.191 141.017 208.2 140.951C208.209 140.886 208.205 140.82 208.189 140.756C208.172 140.693 208.143 140.633 208.103 140.581C208.056 140.519 207.994 140.47 207.923 140.437C207.853 140.404 207.775 140.388 207.697 140.392C206.801 138.88 199.248 125.86 201.523 120.533C201.751 119.988 202.113 119.51 202.576 119.143C203.039 118.775 203.587 118.531 204.169 118.433C212.128 116.683 217.98 133.077 218.925 135.933C218.83 136.013 218.77 136.127 218.755 136.25C218.741 136.374 218.774 136.498 218.848 136.598C218.93 136.701 219.048 136.769 219.178 136.788C219.309 136.806 219.441 136.773 219.548 136.696C219.603 136.655 219.649 136.603 219.683 136.544C219.717 136.484 219.739 136.418 219.747 136.35C219.755 136.282 219.749 136.213 219.729 136.147C219.709 136.081 219.676 136.021 219.632 135.968Z" fill="white"/>
<path d="M210.742 117.712L205.464 116.067L202.468 120.778L208.194 123.536L210.742 117.712Z" fill="#E4897B"/>
<path d="M166.187 155.253L161 156.73L159.922 160.153C160.419 162.953 165.76 161.742 165.76 161.742L166.852 162.442C167.058 162.571 167.291 162.647 167.533 162.664C167.775 162.681 168.017 162.639 168.239 162.541C168.461 162.443 168.655 162.292 168.805 162.101C168.955 161.911 169.056 161.687 169.099 161.448L169.666 158.214C169.707 157.953 169.677 157.685 169.58 157.439C169.483 157.193 169.322 156.977 169.113 156.814L167.482 155.54C167.303 155.395 167.093 155.293 166.869 155.243C166.644 155.193 166.41 155.197 166.187 155.253Z" fill="#E4897B"/>
<path d="M140.91 149.275C139.097 154.238 137.879 158.571 138.11 160.055C138.74 164.185 161.357 162.309 161.357 162.309V156.009L148.155 153.349L140.91 149.275Z" fill="#F83758"/>
<path d="M136.948 164.703C136.913 164.71 136.878 164.71 136.843 164.703C136.814 164.69 136.788 164.67 136.767 164.647C136.746 164.623 136.73 164.596 136.719 164.566C136.709 164.536 136.704 164.504 136.706 164.472C136.708 164.44 136.717 164.409 136.731 164.381C138.579 160.377 142.688 153.622 149.331 153.384C149.396 153.384 149.458 153.409 149.504 153.453C149.551 153.497 149.579 153.558 149.583 153.622C149.585 153.686 149.562 153.748 149.519 153.795C149.476 153.842 149.416 153.87 149.352 153.874C142.947 154.098 138.957 160.678 137.151 164.584C137.13 164.619 137.1 164.649 137.065 164.669C137.029 164.69 136.989 164.702 136.948 164.703Z" fill="#F83758"/>
<g opacity="0.6">
<path d="M136.948 164.703C136.913 164.71 136.878 164.71 136.843 164.703C136.814 164.69 136.788 164.67 136.767 164.647C136.746 164.623 136.73 164.596 136.719 164.566C136.709 164.536 136.704 164.504 136.706 164.472C136.708 164.44 136.717 164.409 136.731 164.381C138.579 160.377 142.688 153.622 149.331 153.384C149.396 153.384 149.458 153.409 149.504 153.453C149.551 153.497 149.579 153.558 149.583 153.622C149.585 153.686 149.562 153.748 149.519 153.795C149.476 153.842 149.416 153.87 149.352 153.874C142.947 154.098 138.957 160.678 137.151 164.584C137.13 164.619 137.1 164.649 137.065 164.669C137.029 164.69 136.989 164.702 136.948 164.703Z" fill="white"/>
</g>
<path d="M139.853 167.454H139.804C139.741 167.44 139.685 167.403 139.649 167.35C139.612 167.296 139.598 167.231 139.608 167.167C140.686 161.777 142.695 154.987 146.146 153.237C146.714 152.947 147.342 152.796 147.98 152.796C148.618 152.796 149.246 152.947 149.814 153.237C149.847 153.247 149.878 153.264 149.905 153.288C149.931 153.311 149.952 153.339 149.966 153.371C149.981 153.403 149.988 153.438 149.988 153.473C149.988 153.508 149.98 153.542 149.965 153.574C149.951 153.606 149.929 153.634 149.903 153.657C149.876 153.68 149.845 153.697 149.812 153.706C149.778 153.716 149.743 153.719 149.708 153.714C149.674 153.709 149.641 153.697 149.611 153.678C149.111 153.417 148.555 153.28 147.991 153.28C147.426 153.28 146.87 153.417 146.37 153.678C143.094 155.337 141.141 161.987 140.07 167.265C140.058 167.315 140.031 167.361 139.992 167.395C139.953 167.429 139.905 167.449 139.853 167.454Z" fill="#F83758"/>
<g opacity="0.7">
<path d="M139.853 167.454H139.804C139.741 167.44 139.685 167.403 139.649 167.35C139.612 167.296 139.598 167.231 139.608 167.167C140.686 161.777 142.695 154.987 146.146 153.237C146.714 152.947 147.342 152.796 147.98 152.796C148.618 152.796 149.246 152.947 149.814 153.237C149.847 153.247 149.878 153.264 149.905 153.288C149.931 153.311 149.952 153.339 149.966 153.371C149.981 153.403 149.988 153.438 149.988 153.473C149.988 153.508 149.98 153.542 149.965 153.574C149.951 153.606 149.929 153.634 149.903 153.657C149.876 153.68 149.845 153.697 149.812 153.706C149.778 153.716 149.743 153.719 149.708 153.714C149.674 153.709 149.641 153.697 149.611 153.678C149.111 153.417 148.555 153.28 147.991 153.28C147.426 153.28 146.87 153.417 146.37 153.678C143.094 155.337 141.141 161.987 140.07 167.265C140.058 167.315 140.031 167.361 139.992 167.395C139.953 167.429 139.905 167.449 139.853 167.454Z" fill="white"/>
</g>
<path d="M142.037 166.404C142.006 166.401 141.975 166.393 141.947 166.378C141.92 166.364 141.895 166.344 141.875 166.32C141.854 166.296 141.839 166.268 141.83 166.238C141.821 166.208 141.817 166.176 141.82 166.145C142.184 162.204 143.682 155.295 149.66 153.258C149.689 153.247 149.721 153.242 149.752 153.244C149.783 153.245 149.814 153.253 149.842 153.267C149.87 153.281 149.895 153.3 149.916 153.324C149.936 153.347 149.952 153.375 149.961 153.405C149.981 153.464 149.977 153.529 149.95 153.586C149.922 153.642 149.873 153.685 149.814 153.706C144.375 155.554 142.723 161.518 142.289 166.194C142.286 166.224 142.278 166.254 142.264 166.281C142.25 166.308 142.23 166.332 142.207 166.351C142.183 166.371 142.156 166.386 142.127 166.395C142.098 166.404 142.067 166.407 142.037 166.404Z" fill="#263238"/>
<path d="M146.601 174.958C146.546 174.959 146.493 174.94 146.451 174.906C146.409 174.871 146.38 174.823 146.37 174.769C146.244 174.125 143.395 159.005 147.679 154.504C148.15 154.007 148.739 153.636 149.391 153.426C150.043 153.215 150.737 153.172 151.41 153.3C151.471 153.31 151.526 153.344 151.564 153.393C151.602 153.442 151.619 153.504 151.613 153.566C151.603 153.629 151.568 153.685 151.518 153.723C151.467 153.76 151.403 153.777 151.34 153.769C150.743 153.65 150.125 153.684 149.545 153.869C148.964 154.054 148.44 154.383 148.022 154.826C143.899 159.159 146.804 174.524 146.832 174.678C146.843 174.74 146.829 174.804 146.794 174.856C146.758 174.908 146.704 174.945 146.643 174.958H146.601Z" fill="#263238"/>
</svg>
