<svg width="24" height="24" viewBox="0 0 24 24" fill="none" xmlns="http://www.w3.org/2000/svg">
<g clip-path="url(#clip0_1_17144)">
<path d="M11.5385 15C13.1316 15 14.4231 13.6569 14.4231 12C14.4231 10.3431 13.1316 9 11.5385 9C9.94536 9 8.65387 10.3431 8.65387 12C8.65387 13.6569 9.94536 15 11.5385 15Z" stroke="black" stroke-width="2" stroke-linecap="round" stroke-linejoin="round"/>
<path d="M18.6539 15C18.5259 15.3016 18.4877 15.6362 18.5442 15.9606C18.6008 16.285 18.7495 16.5843 18.9712 16.82L19.0289 16.88C19.2077 17.0657 19.3495 17.2863 19.4463 17.5291C19.5431 17.7719 19.5929 18.0322 19.5929 18.295C19.5929 18.5578 19.5431 18.8181 19.4463 19.0609C19.3495 19.3037 19.2077 19.5243 19.0289 19.71C18.8503 19.896 18.6382 20.0435 18.4047 20.1441C18.1712 20.2448 17.921 20.2966 17.6683 20.2966C17.4156 20.2966 17.1653 20.2448 16.9319 20.1441C16.6984 20.0435 16.4863 19.896 16.3077 19.71L16.25 19.65C16.0234 19.4195 15.7356 19.2648 15.4237 19.206C15.1117 19.1472 14.79 19.1869 14.5 19.32C14.2156 19.4468 13.9731 19.6572 13.8022 19.9255C13.6314 20.1938 13.5397 20.5082 13.5385 20.83V21C13.5385 21.5304 13.3359 22.0391 12.9752 22.4142C12.6146 22.7893 12.1254 23 11.6154 23C11.1054 23 10.6162 22.7893 10.2556 22.4142C9.89493 22.0391 9.69232 21.5304 9.69232 21V20.91C9.68487 20.579 9.58185 20.258 9.39665 19.9887C9.21145 19.7194 8.95264 19.5143 8.65386 19.4C8.36384 19.2669 8.04213 19.2272 7.73021 19.286C7.41829 19.3448 7.13047 19.4995 6.90386 19.73L6.84616 19.79C6.66756 19.976 6.45547 20.1235 6.22201 20.2241C5.98855 20.3248 5.73831 20.3766 5.48559 20.3766C5.23286 20.3766 4.98262 20.3248 4.74916 20.2241C4.5157 20.1235 4.30361 19.976 4.12501 19.79C3.94621 19.6043 3.80436 19.3837 3.70759 19.1409C3.61081 18.8981 3.561 18.6378 3.561 18.375C3.561 18.1122 3.61081 17.8519 3.70759 17.6091C3.80436 17.3663 3.94621 17.1457 4.12501 16.96L4.1827 16.9C4.40437 16.6643 4.55307 16.365 4.60963 16.0406C4.66619 15.7162 4.628 15.3816 4.50001 15.08C4.37812 14.7842 4.17574 14.532 3.91776 14.3543C3.65979 14.1766 3.3575 14.0813 3.04809 14.08H2.88462C2.37459 14.08 1.88545 13.8693 1.5248 13.4942C1.16416 13.1191 0.961548 12.6104 0.961548 12.08C0.961548 11.5496 1.16416 11.0409 1.5248 10.6658C1.88545 10.2907 2.37459 10.08 2.88462 10.08H2.97116C3.28943 10.0723 3.59809 9.96512 3.85703 9.77251C4.11596 9.5799 4.3132 9.31074 4.42309 9C4.55108 8.69838 4.58926 8.36381 4.53271 8.03941C4.47615 7.71502 4.32745 7.41568 4.10578 7.18L4.04809 7.12C3.86929 6.93425 3.72744 6.71368 3.63066 6.47088C3.53389 6.22808 3.48407 5.96783 3.48407 5.705C3.48407 5.44217 3.53389 5.18192 3.63066 4.93912C3.72744 4.69632 3.86929 4.47575 4.04809 4.29C4.22669 4.10405 4.43878 3.95653 4.67224 3.85588C4.9057 3.75523 5.15594 3.70343 5.40866 3.70343C5.66139 3.70343 5.91163 3.75523 6.14509 3.85588C6.37854 3.95653 6.59064 4.10405 6.76924 4.29L6.82693 4.35C7.05355 4.58054 7.34137 4.73519 7.65329 4.794C7.96521 4.85282 8.28692 4.81312 8.57693 4.68H8.65386C8.93825 4.55324 9.1808 4.34276 9.35164 4.07447C9.52248 3.80618 9.61416 3.49179 9.61539 3.17V3C9.61539 2.46957 9.818 1.96086 10.1787 1.58579C10.5393 1.21071 11.0284 1 11.5385 1C12.0485 1 12.5376 1.21071 12.8983 1.58579C13.2589 1.96086 13.4615 2.46957 13.4615 3V3.09C13.4628 3.41179 13.5545 3.72618 13.7253 3.99447C13.8961 4.26276 14.1387 4.47324 14.4231 4.6C14.7131 4.73312 15.0348 4.77282 15.3467 4.714C15.6586 4.65519 15.9465 4.50054 16.1731 4.27L16.2308 4.21C16.4094 4.02405 16.6215 3.87653 16.8549 3.77588C17.0884 3.67523 17.3386 3.62343 17.5914 3.62343C17.8441 3.62343 18.0943 3.67523 18.3278 3.77588C18.5612 3.87653 18.7733 4.02405 18.9519 4.21C19.1307 4.39575 19.2726 4.61632 19.3694 4.85912C19.4661 5.10192 19.5159 5.36217 19.5159 5.625C19.5159 5.88783 19.4661 6.14808 19.3694 6.39088C19.2726 6.63368 19.1307 6.85425 18.9519 7.04L18.8942 7.1C18.6726 7.33568 18.5239 7.63502 18.4673 7.95941C18.4108 8.28381 18.4489 8.61838 18.5769 8.92V9C18.6988 9.29577 18.9012 9.54802 19.1592 9.72569C19.4171 9.90337 19.7194 9.99872 20.0289 10H20.1923C20.7023 10 21.1915 10.2107 21.5521 10.5858C21.9128 10.9609 22.1154 11.4696 22.1154 12C22.1154 12.5304 21.9128 13.0391 21.5521 13.4142C21.1915 13.7893 20.7023 14 20.1923 14H20.1058C19.7964 14.0013 19.4941 14.0966 19.2361 14.2743C18.9781 14.452 18.7757 14.7042 18.6539 15Z" stroke="black" stroke-width="2" stroke-linecap="round" stroke-linejoin="round"/>
</g>
<defs>
<clipPath id="clip0_1_17144">
<rect width="23.0769" height="24" fill="white"/>
</clipPath>
</defs>
</svg>
